{"glyphs":{"0":{"ha":896,"x_min":83,"x_max":819,"o":"m 173 865 q 218 931 173 865 q 461 996 263 996 q 740 874 660 996 q 819 503 819 753 q 447 -18 819 -18 q 170 108 257 -18 q 83 482 83 233 q 173 865 83 735 m 563 751 q 547 786 563 751 q 453 822 532 822 q 341 749 374 822 q 308 489 308 675 q 342 232 308 308 q 453 156 375 156 q 562 232 531 156 q 593 496 593 308 q 563 751 593 679 z "},"1":{"ha":747,"x_min":21,"x_max":717,"o":"m 717 160 l 717 0 l 119 0 l 119 160 l 314 160 l 314 757 l 101 621 l 21 768 l 351 979 l 529 979 l 529 160 l 717 160 z "},"2":{"ha":843,"x_min":56,"x_max":774,"o":"m 774 169 l 774 0 l 56 0 l 56 169 q 221 304 164 257 q 347 415 278 351 q 447 517 415 478 q 501 602 479 557 q 524 688 524 647 q 479 789 524 751 q 361 826 435 826 q 296 820 328 826 q 247 808 264 814 l 232 801 l 218 683 l 72 683 l 65 940 q 371 996 222 996 q 651 933 551 996 q 750 722 750 869 q 726 586 750 651 q 644 451 701 521 q 524 320 588 381 q 357 169 461 260 l 774 169 z "},"3":{"ha":822,"x_min":35,"x_max":739,"o":"m 718 746 q 674 595 718 657 q 544 511 629 533 q 685 431 632 492 q 739 292 739 371 q 705 149 739 210 q 613 52 671 88 q 487 0 556 17 q 340 -17 418 -17 q 185 2 261 -17 q 72 39 108 21 l 35 58 l 93 211 q 340 153 218 153 q 471 189 425 153 q 517 294 517 225 q 465 394 517 358 q 319 431 414 431 l 211 431 l 211 576 l 326 576 q 507 711 507 576 q 467 795 507 764 q 354 826 426 826 q 290 822 324 826 q 236 811 256 817 l 218 806 l 204 694 l 58 694 l 51 938 q 361 996 222 996 q 718 746 718 996 z "},"4":{"ha":871,"x_min":21,"x_max":826,"o":"m 826 368 l 826 197 l 688 197 l 688 0 l 474 0 l 474 197 l 42 197 l 21 361 q 456 1000 408 932 l 688 979 l 688 368 l 826 368 m 229 368 l 476 368 l 476 735 l 229 368 z "},"5":{"ha":778,"x_min":24,"x_max":718,"o":"m 24 58 l 83 211 q 329 153 208 153 q 443 190 399 153 q 488 292 488 226 q 423 405 488 369 q 229 440 358 440 l 79 440 l 103 979 l 672 979 l 668 808 l 300 808 l 290 600 q 605 524 492 600 q 718 313 718 449 q 610 72 718 160 q 351 -17 503 -17 q 186 2 268 -17 q 64 39 104 21 l 24 58 z "},"6":{"ha":857,"x_min":72,"x_max":813,"o":"m 708 819 q 600 826 667 826 q 454 798 517 826 q 362 729 392 769 q 314 649 332 689 q 293 581 296 608 l 290 551 q 507 611 389 611 q 726 535 640 611 q 813 319 813 460 q 708 78 813 174 q 447 -18 604 -18 q 170 101 268 -18 q 72 410 72 221 q 205 834 72 672 q 593 996 338 996 q 660 992 629 996 q 706 986 692 989 l 718 982 l 708 819 m 285 399 l 285 365 q 330 205 285 257 q 446 153 375 153 q 553 192 513 153 q 593 299 593 232 q 443 447 593 447 q 365 435 404 447 q 306 411 325 422 l 285 399 z "},"7":{"ha":738,"x_min":7,"x_max":715,"o":"m 7 979 l 715 979 l 715 829 l 351 0 l 122 0 l 482 806 l 175 806 l 147 676 l 7 676 l 7 979 z "},"8":{"ha":858,"x_min":63,"x_max":796,"o":"m 772 733 q 621 525 772 596 q 796 286 796 443 q 690 66 796 150 q 414 -18 585 -18 q 154 60 246 -18 q 63 267 63 139 q 240 501 63 413 q 94 724 94 583 q 189 924 94 853 q 446 996 283 996 q 688 924 603 996 q 772 733 772 851 m 576 281 q 535 365 576 333 q 410 428 493 396 q 281 276 281 369 q 319 185 281 217 q 428 153 357 153 q 538 186 499 153 q 576 281 576 219 m 301 724 q 340 646 301 675 q 451 589 378 617 q 564 724 564 636 q 528 798 564 769 q 432 826 492 826 q 336 798 371 826 q 301 724 301 769 z "},"9":{"ha":857,"x_min":44,"x_max":785,"o":"m 149 158 q 257 153 190 153 q 405 181 342 153 q 498 249 468 208 q 545 329 528 289 q 564 397 563 369 l 567 425 q 350 368 468 368 q 131 443 217 368 q 44 658 44 518 q 149 901 44 806 q 410 996 253 996 q 687 877 589 996 q 785 569 785 758 q 731 269 785 399 q 557 60 676 139 q 264 -18 438 -18 q 197 -15 228 -18 q 153 -8 165 -11 l 139 -4 l 149 158 m 572 581 l 572 618 q 527 775 572 724 q 411 826 482 826 q 304 787 344 826 q 264 679 264 747 q 302 569 264 608 q 414 531 340 531 q 492 543 453 531 q 553 568 532 556 l 572 581 z "}," ":{"ha":326,"x_min":0,"x_max":0,"o":""},"!":{"ha":472,"x_min":118,"x_max":354,"o":"m 343 1063 l 318 363 l 151 356 l 126 1063 l 343 1063 m 118 108 q 153 199 118 165 q 238 233 189 233 q 324 201 294 233 q 354 108 354 168 q 319 16 354 50 q 233 -18 283 -18 q 118 108 118 -18 z "},"\"":{"ha":613,"x_min":79,"x_max":547,"o":"m 547 1086 l 515 694 l 358 694 l 358 1086 l 547 1086 m 267 1086 l 236 694 l 79 694 l 79 1086 l 267 1086 z "},"#":{"ha":1014,"x_min":83,"x_max":931,"o":"m 118 510 l 118 653 l 272 653 l 297 833 l 474 833 l 449 653 l 624 653 l 647 833 l 824 833 l 800 653 l 931 653 l 931 510 l 781 510 l 758 339 l 896 339 l 896 196 l 739 196 l 714 0 l 538 0 l 563 196 l 389 196 l 363 0 l 186 0 l 213 196 l 83 196 l 83 339 l 231 339 l 254 510 l 118 510 m 431 510 l 407 339 l 582 339 l 604 510 l 431 510 z "},"$":{"ha":767,"x_min":76,"x_max":704,"o":"m 461 -203 l 313 -203 l 313 -15 q 197 -1 256 -12 q 107 19 138 10 l 76 29 l 76 275 l 204 275 l 225 171 q 346 146 272 146 q 457 172 413 146 q 501 244 501 197 q 478 296 501 274 q 417 333 454 318 q 334 362 379 347 q 244 398 289 376 q 161 448 199 419 q 100 526 124 476 q 76 639 76 575 q 140 811 76 744 q 313 899 204 878 l 313 1063 l 461 1063 l 461 904 q 568 888 514 900 q 650 864 622 875 l 678 854 l 672 626 l 553 626 l 526 729 q 415 750 468 750 q 315 726 350 750 q 281 663 281 701 q 324 595 281 622 q 430 548 368 568 q 554 500 492 528 q 660 415 617 472 q 704 275 704 358 q 638 90 704 163 q 461 -7 572 17 l 461 -203 z "},"%":{"ha":1299,"x_min":76,"x_max":1206,"o":"m 249 -11 l 829 989 l 1031 989 l 450 -11 l 249 -11 m 76 735 q 147 926 76 856 q 326 996 218 996 q 497 932 432 996 q 561 750 561 868 q 490 558 561 631 q 310 486 419 486 q 140 548 203 486 q 76 735 76 610 m 236 740 q 317 607 236 607 q 401 744 401 607 q 319 876 401 876 q 236 740 236 876 m 721 229 q 792 420 721 350 q 971 490 863 490 q 1141 426 1076 490 q 1206 244 1206 363 q 1135 53 1206 125 q 954 -19 1064 -19 q 784 42 847 -19 q 721 229 721 104 m 881 235 q 961 101 881 101 q 1046 239 1046 101 q 964 371 1046 371 q 881 235 881 371 z "},"&":{"ha":940,"x_min":76,"x_max":899,"o":"m 592 718 q 569 808 582 756 q 444 826 522 826 q 347 794 381 826 q 313 717 313 763 q 359 624 313 657 q 472 590 406 590 l 899 590 l 899 472 l 801 440 l 801 293 q 701 66 801 149 q 428 -17 600 -17 q 164 58 251 -17 q 76 261 76 133 q 98 359 76 313 q 152 436 119 406 q 208 484 185 467 q 253 511 232 501 q 151 593 181 556 q 106 731 106 653 q 199 928 106 860 q 456 996 293 996 q 611 975 528 996 q 729 938 694 954 l 722 718 l 592 718 m 600 313 l 600 440 l 496 440 q 349 403 406 440 q 292 290 292 365 q 332 189 292 225 q 442 153 372 153 q 558 194 515 153 q 600 313 600 236 z "},"'":{"ha":333,"x_min":79,"x_max":267,"o":"m 267 1086 l 236 694 l 79 694 l 79 1086 l 267 1086 z "},"(":{"ha":490,"x_min":75,"x_max":486,"o":"m 306 1069 l 486 1069 q 328 736 386 917 q 269 392 269 556 q 327 18 269 211 q 485 -319 385 -175 l 306 -319 q 130 16 185 -149 q 75 389 75 181 q 131 738 75 581 q 306 1069 186 896 z "},")":{"ha":486,"x_min":-1,"x_max":410,"o":"m -1 1069 l 179 1069 q 354 738 299 896 q 410 389 410 581 q 355 15 410 181 q 179 -319 300 -150 l 0 -319 q 158 18 100 -175 q 215 392 215 211 q 157 736 215 556 q -1 1069 99 917 z "},"*":{"ha":575,"x_min":31,"x_max":526,"o":"m 232 857 l 213 1022 l 342 1025 l 329 856 l 483 924 l 526 799 l 357 764 l 471 632 l 369 556 l 279 710 l 294 771 l 357 764 l 306 800 l 329 856 l 279 815 l 232 857 l 257 797 l 203 767 l 265 771 l 279 710 l 196 556 l 89 631 l 203 767 l 31 796 l 72 919 l 232 857 z "},"+":{"ha":861,"x_min":58,"x_max":801,"o":"m 58 293 l 58 457 l 339 457 l 339 740 l 524 740 l 524 457 l 801 457 l 801 293 l 524 293 l 524 0 l 339 0 l 339 293 l 58 293 z "},",":{"ha":421,"x_min":56,"x_max":335,"o":"m 99 110 q 133 199 99 165 q 218 233 167 233 q 303 200 271 233 q 335 106 335 167 q 143 -257 335 -51 l 56 -185 q 139 -18 139 -74 q 119 36 139 -1 q 99 110 99 74 z "},"-":{"ha":549,"x_min":79,"x_max":472,"o":"m 79 292 l 79 465 l 472 465 l 472 292 l 79 292 z "},".":{"ha":417,"x_min":90,"x_max":326,"o":"m 90 108 q 126 199 90 165 q 210 233 161 233 q 297 201 267 233 q 326 108 326 168 q 292 16 326 50 q 207 -18 257 -18 q 120 15 150 -18 q 90 108 90 47 z "},"/":{"ha":717,"x_min":28,"x_max":703,"o":"m 28 0 l 490 979 l 703 979 l 239 0 l 28 0 z "},":":{"ha":424,"x_min":93,"x_max":329,"o":"m 93 108 q 128 199 93 165 q 214 233 164 233 q 329 108 329 233 q 294 16 329 50 q 210 -18 260 -18 q 123 15 153 -18 q 93 108 93 47 m 93 525 q 128 617 93 583 q 214 651 164 651 q 329 525 329 651 q 294 434 329 468 q 210 400 258 400 q 123 433 153 400 q 93 525 93 465 z "},";":{"ha":432,"x_min":58,"x_max":338,"o":"m 147 -257 l 58 -185 q 142 -18 142 -74 q 122 36 142 -1 q 101 110 101 74 q 135 199 101 165 q 222 233 169 233 q 306 200 275 233 q 338 106 338 167 q 147 -257 338 -50 m 101 525 q 136 617 101 583 q 221 651 171 651 q 308 619 278 651 q 338 525 338 586 q 302 434 338 468 q 218 400 267 400 q 131 433 161 400 q 101 525 101 465 z "},"<":{"ha":829,"x_min":56,"x_max":774,"o":"m 281 371 l 774 169 l 774 -14 l 56 289 l 56 456 l 774 760 l 774 579 l 281 371 z "},"=":{"ha":833,"x_min":69,"x_max":764,"o":"m 69 149 l 69 308 l 764 308 l 764 149 l 69 149 m 69 447 l 69 607 l 764 607 l 764 447 l 69 447 z "},">":{"ha":829,"x_min":56,"x_max":774,"o":"m 56 169 l 549 371 l 56 579 l 56 760 l 774 456 l 774 289 l 56 -14 l 56 169 z "},"?":{"ha":644,"x_min":90,"x_max":575,"o":"m 131 108 q 166 199 131 165 q 250 233 201 233 q 337 201 307 233 q 367 108 367 168 q 331 16 367 50 q 246 -18 296 -18 q 131 108 131 -18 m 328 351 l 143 343 q 131 479 131 433 q 167 570 131 524 q 248 649 204 617 q 328 726 292 682 q 365 814 365 771 q 240 906 365 906 q 183 901 214 906 q 133 894 151 897 l 117 890 l 90 1035 q 297 1068 206 1068 q 432 1049 372 1068 q 533 981 492 1031 q 575 853 575 931 q 549 740 575 793 q 487 649 524 688 q 413 575 450 610 q 351 503 376 540 q 325 432 325 467 l 328 351 z "},"@":{"ha":1139,"x_min":65,"x_max":1083,"o":"m 824 204 q 657 290 706 204 q 635 268 649 282 q 578 232 621 254 q 493 210 535 210 q 378 253 419 210 q 336 369 336 296 q 569 535 336 535 l 633 535 l 633 582 q 553 647 633 647 q 488 642 525 647 q 426 631 450 636 l 403 624 l 376 726 q 586 768 488 768 q 742 726 693 768 q 790 593 790 685 l 790 363 q 839 314 790 314 q 906 362 882 314 q 931 501 931 410 q 840 766 931 671 q 578 861 749 861 q 312 763 406 861 q 218 486 218 665 q 299 210 218 306 q 546 114 381 114 q 631 122 588 114 q 697 139 675 131 l 719 149 l 776 35 q 746 19 765 29 q 664 -6 726 10 q 536 -21 601 -21 q 187 108 308 -21 q 65 479 65 236 q 206 857 65 718 q 585 996 347 996 q 950 869 817 996 q 1083 508 1083 743 q 1010 285 1083 365 q 824 204 938 204 m 482 382 q 497 344 482 358 q 539 331 513 331 q 633 378 586 331 l 633 443 l 579 443 q 482 382 482 443 z "},"A":{"ha":1058,"x_min":17,"x_max":1042,"o":"m 646 979 l 944 153 l 1042 121 l 1042 0 l 600 0 l 600 121 l 704 153 l 671 257 l 363 257 l 328 154 l 436 121 l 436 0 l 17 0 l 17 121 l 118 153 l 424 975 l 646 979 m 521 735 l 411 406 l 625 406 l 521 735 z "},"B":{"ha":913,"x_min":56,"x_max":854,"o":"m 371 979 l 517 979 q 740 919 657 979 q 822 739 822 858 q 656 510 822 563 q 854 288 854 453 q 493 0 854 0 l 56 0 l 56 121 q 160 156 90 133 l 160 815 l 56 857 l 56 972 l 371 979 m 451 433 l 371 433 l 371 163 l 486 163 q 597 196 558 163 q 635 288 635 229 q 590 398 635 363 q 451 433 546 433 m 371 815 l 371 579 l 451 579 q 607 708 607 579 q 574 788 607 761 q 489 815 542 815 l 371 815 z "},"C":{"ha":906,"x_min":56,"x_max":864,"o":"m 672 800 q 517 822 607 822 q 288 482 288 822 q 524 163 288 163 q 651 187 585 163 q 753 236 717 211 l 788 260 l 864 135 q 847 119 858 129 q 799 82 836 108 q 722 36 763 56 q 622 0 682 17 q 500 -17 561 -17 q 172 109 288 -17 q 56 475 56 235 q 182 857 56 718 q 524 996 308 996 q 679 980 599 996 q 803 947 760 964 l 847 931 l 840 667 l 704 667 l 672 800 z "},"D":{"ha":1014,"x_min":72,"x_max":965,"o":"m 72 0 l 72 121 l 176 156 l 176 815 l 72 857 l 72 972 l 392 979 l 524 979 q 850 857 735 979 q 965 503 965 735 q 840 135 965 269 q 503 0 715 0 l 72 0 m 392 815 l 392 163 l 507 163 q 674 240 615 163 q 732 496 732 317 q 677 740 732 665 q 517 815 622 815 l 392 815 z "},"E":{"ha":871,"x_min":76,"x_max":801,"o":"m 396 815 l 396 583 l 676 583 l 676 431 l 396 431 l 396 163 l 642 163 l 674 278 l 801 278 l 801 0 l 76 0 l 76 121 l 181 156 l 181 815 l 76 857 l 76 972 l 396 979 l 785 979 l 785 711 l 656 711 l 621 815 l 396 815 z "},"F":{"ha":806,"x_min":63,"x_max":771,"o":"m 510 121 l 510 0 l 63 0 l 63 121 q 167 156 97 133 l 167 815 l 63 857 l 63 972 l 382 979 l 771 979 l 771 715 l 642 715 l 607 815 l 382 815 l 382 569 l 669 569 l 669 417 l 382 417 l 382 156 q 510 121 490 126 z "},"G":{"ha":1042,"x_min":76,"x_max":993,"o":"m 732 681 l 697 800 q 540 822 632 822 q 308 482 308 822 q 544 160 308 160 q 615 166 576 160 q 675 178 653 172 l 697 185 l 697 360 l 593 392 l 593 506 l 993 513 l 993 392 l 899 360 l 899 76 q 852 50 882 65 q 724 9 822 35 q 521 -17 625 -17 q 192 109 308 -17 q 76 475 76 235 q 203 857 76 718 q 544 996 329 996 q 700 980 619 996 q 825 947 781 964 l 868 931 l 861 681 l 732 681 z "},"H":{"ha":1100,"x_min":49,"x_max":1051,"o":"m 475 121 l 475 0 l 49 0 l 49 121 l 153 156 l 153 815 l 49 857 l 49 972 l 475 979 l 475 857 l 368 815 l 368 586 l 732 586 l 732 815 l 625 857 l 625 972 l 1051 979 l 1051 857 l 947 815 l 947 156 l 1051 121 l 1051 0 l 625 0 l 625 121 l 732 156 l 732 424 l 368 424 l 368 156 l 475 121 z "},"I":{"ha":521,"x_min":49,"x_max":472,"o":"m 472 121 l 472 0 l 49 0 l 49 121 l 153 156 l 153 815 l 49 857 l 49 972 l 472 979 l 472 857 l 368 815 l 368 156 l 472 121 z "},"J":{"ha":531,"x_min":-44,"x_max":482,"o":"m 378 815 l 378 147 q 308 -130 378 -42 q 61 -218 238 -218 l -44 -208 l -26 -69 l 40 -69 q 163 64 163 -69 l 163 815 l 58 857 l 58 972 l 482 979 l 482 857 l 378 815 z "},"K":{"ha":1021,"x_min":56,"x_max":1010,"o":"m 482 121 l 482 0 l 56 0 l 56 121 l 160 156 l 160 815 l 56 857 l 56 972 l 482 979 l 482 857 l 375 815 l 375 576 l 469 576 l 701 972 l 954 979 l 954 857 l 831 818 l 647 515 l 907 156 l 1010 121 l 1010 0 l 583 0 l 583 121 l 664 154 l 476 424 l 375 424 l 375 156 l 482 121 z "},"L":{"ha":750,"x_min":44,"x_max":739,"o":"m 364 815 l 364 163 l 576 163 l 607 319 l 739 319 l 739 0 l 44 0 l 44 121 l 149 156 l 149 815 l 44 857 l 44 972 l 468 979 l 468 857 l 364 815 z "},"M":{"ha":1218,"x_min":51,"x_max":1174,"o":"m 447 121 l 447 0 l 51 0 l 51 121 l 156 156 l 156 815 l 51 857 l 51 972 l 410 979 l 618 517 l 836 972 l 1169 979 l 1169 857 l 1069 815 l 1069 156 l 1174 121 l 1174 0 l 760 0 l 760 121 l 868 156 l 868 682 q 810 547 843 617 q 737 394 778 476 q 674 264 696 311 l 524 257 l 364 586 l 340 658 l 340 156 l 447 121 z "},"N":{"ha":1090,"x_min":49,"x_max":1051,"o":"m 451 121 l 451 0 l 49 0 l 49 121 l 153 156 l 153 815 l 49 857 l 49 972 l 382 979 l 757 338 l 757 815 l 656 857 l 656 972 l 1051 979 l 1051 857 l 947 815 l 947 0 l 715 0 l 343 629 l 343 156 l 451 121 z "},"O":{"ha":1049,"x_min":76,"x_max":972,"o":"m 535 996 q 858 866 743 996 q 972 503 972 736 q 844 125 972 268 q 507 -18 715 -18 q 188 110 299 -18 q 76 482 76 238 q 199 858 76 721 q 535 996 322 996 m 528 822 q 364 745 419 822 q 308 489 308 668 q 359 237 308 318 q 514 156 410 156 q 681 235 624 156 q 739 496 739 315 q 686 744 739 665 q 528 822 633 822 z "},"P":{"ha":875,"x_min":58,"x_max":847,"o":"m 482 121 l 482 0 l 58 0 l 58 121 l 163 156 l 163 815 l 58 857 l 58 972 l 378 979 l 510 979 q 758 901 668 979 q 847 688 847 824 q 745 428 847 515 q 451 340 643 340 l 378 340 l 378 156 l 482 121 m 378 815 l 378 503 l 451 503 q 585 543 539 503 q 632 660 632 583 q 595 772 632 729 q 489 815 558 815 l 378 815 z "},"Q":{"ha":1031,"x_min":76,"x_max":1167,"o":"m 753 -204 l 472 -15 q 178 124 279 -3 q 76 482 76 250 q 203 858 76 719 q 544 996 329 996 q 872 866 757 996 q 986 503 986 736 q 910 196 986 324 q 697 15 833 68 q 759 -26 708 8 q 833 -74 810 -60 q 897 -103 857 -87 q 965 -118 936 -118 q 1017 -106 985 -118 q 1071 -82 1049 -94 l 1093 -69 q 1133 -131 1107 -90 q 1167 -181 1160 -171 q 1124 -208 1150 -192 q 1034 -251 1097 -224 q 931 -278 971 -278 q 753 -204 861 -278 m 538 822 q 363 742 419 822 q 306 489 306 663 q 524 156 306 156 q 699 239 642 156 q 757 496 757 322 q 704 743 757 664 q 538 822 651 822 z "},"R":{"ha":944,"x_min":56,"x_max":931,"o":"m 475 121 l 475 0 l 56 0 l 56 121 l 160 156 l 160 815 l 56 857 l 56 972 l 375 979 l 481 979 q 748 908 654 979 q 842 696 842 836 q 685 433 842 511 q 743 343 719 393 l 836 153 l 931 121 l 931 0 l 674 0 l 557 257 q 498 363 519 340 q 424 385 476 385 l 375 385 l 375 156 l 475 121 m 375 815 l 375 531 l 454 531 q 582 569 536 531 q 628 676 628 607 q 590 777 628 739 q 489 815 553 815 l 375 815 z "},"S":{"ha":839,"x_min":81,"x_max":768,"o":"m 225 301 l 246 185 q 382 156 301 156 q 501 185 453 156 q 550 268 550 215 q 515 333 550 306 q 428 376 481 361 q 315 417 376 392 q 202 473 254 443 q 115 562 150 503 q 81 701 81 621 q 178 919 81 842 q 433 996 276 996 q 579 982 503 996 q 697 954 656 968 l 739 940 l 732 688 l 604 688 l 569 806 q 447 826 507 826 q 338 799 376 826 q 300 728 300 771 q 335 663 300 690 q 422 619 369 635 q 534 578 474 603 q 647 524 594 553 q 733 438 699 494 q 768 304 768 381 q 663 67 768 153 q 393 -18 558 -18 q 246 -5 324 -18 q 125 22 168 8 l 83 35 l 83 301 l 225 301 z "},"T":{"ha":833,"x_min":14,"x_max":819,"o":"m 194 0 l 194 121 l 308 156 l 308 815 l 176 815 l 142 683 l 14 683 l 14 975 l 819 979 l 819 683 l 690 683 l 656 815 l 524 815 l 524 156 l 639 121 l 639 0 l 194 0 z "},"U":{"ha":1086,"x_min":44,"x_max":1042,"o":"m 364 815 l 364 375 q 404 203 364 254 q 544 153 444 153 q 686 209 650 153 q 722 396 722 265 l 722 815 l 614 857 l 614 972 l 1042 979 l 1042 857 l 938 815 l 938 396 q 846 85 938 188 q 538 -17 754 -17 q 240 78 332 -17 q 149 375 149 172 l 149 815 l 44 857 l 44 972 l 472 979 l 472 857 l 364 815 z "},"V":{"ha":1013,"x_min":10,"x_max":1001,"o":"m 385 0 l 104 818 l 10 857 l 10 972 l 440 979 l 440 857 l 338 817 l 465 415 l 510 244 l 554 408 l 692 815 l 586 857 l 586 972 l 1001 979 l 1001 857 l 900 815 l 607 0 l 385 0 z "},"W":{"ha":1438,"x_min":7,"x_max":1431,"o":"m 329 0 l 104 817 l 7 857 l 7 972 l 419 979 l 419 857 l 318 815 l 438 313 l 632 968 l 819 979 l 1006 314 l 1139 815 l 1035 857 l 1035 972 l 1431 979 l 1431 857 l 1331 815 l 1093 0 l 896 0 l 714 660 q 605 276 681 524 q 521 0 529 28 l 329 0 z "},"X":{"ha":1028,"x_min":14,"x_max":1014,"o":"m 426 121 l 426 0 l 14 0 l 14 121 l 100 150 l 381 492 l 122 831 l 42 857 l 42 972 l 458 979 l 458 857 l 389 833 l 532 640 l 668 828 l 593 857 l 593 972 l 993 979 l 993 857 l 901 829 l 646 503 l 917 149 l 1014 121 l 1014 0 l 583 0 l 583 121 l 647 143 l 494 351 l 339 149 l 426 121 z "},"Y":{"ha":926,"x_min":10,"x_max":917,"o":"m 674 121 l 674 0 l 250 0 l 250 121 l 354 156 l 354 339 l 100 819 l 10 857 l 10 972 l 403 979 l 403 857 l 332 828 l 471 526 l 618 826 l 542 857 l 542 972 l 917 979 l 917 857 l 821 819 l 569 340 l 569 156 l 674 121 z "},"Z":{"ha":854,"x_min":42,"x_max":813,"o":"m 808 0 l 42 0 l 42 142 l 535 815 l 243 815 l 208 690 l 76 690 l 76 979 l 813 979 l 813 822 l 329 163 l 646 163 l 676 306 l 808 306 l 808 0 z "},"[":{"ha":489,"x_min":93,"x_max":440,"o":"m 440 -171 l 440 -312 l 93 -319 l 93 1069 l 440 1063 l 440 919 l 275 904 l 275 -156 l 440 -171 z "},"\\":{"ha":703,"x_min":10,"x_max":685,"o":"m 222 979 l 685 0 l 474 0 l 10 979 l 222 979 z "},"]":{"ha":489,"x_min":44,"x_max":392,"o":"m 44 -312 l 44 -169 l 211 -154 l 211 904 l 44 919 l 44 1063 l 392 1069 l 392 -319 l 44 -312 z "},"^":{"ha":826,"x_min":69,"x_max":757,"o":"m 410 785 l 243 444 l 69 444 l 336 979 l 489 979 l 757 444 l 578 444 l 410 785 z "},"_":{"ha":694,"x_min":0,"x_max":694,"o":"m 0 -250 l 0 -111 l 694 -111 l 694 -250 l 0 -250 z "},"`":{"ha":581,"x_min":100,"x_max":481,"o":"m 415 871 l 100 1026 l 181 1178 l 481 982 l 415 871 z "},"a":{"ha":822,"x_min":51,"x_max":792,"o":"m 792 10 l 517 0 l 492 90 q 458 62 479 79 q 378 15 438 44 q 267 -14 319 -14 q 108 43 165 -14 q 51 204 51 100 q 385 433 51 433 l 482 433 l 482 510 q 375 614 482 614 q 313 608 343 614 q 267 597 282 603 l 253 593 l 232 503 l 107 503 l 97 708 q 399 764 265 764 q 622 702 557 764 q 688 489 688 640 l 688 146 l 792 121 l 792 10 m 251 225 q 333 142 251 142 q 403 162 367 142 q 461 203 440 182 l 482 222 l 482 315 l 403 315 q 287 294 322 315 q 251 225 251 272 z "},"b":{"ha":826,"x_min":-14,"x_max":778,"o":"m -14 1065 l 294 1076 l 294 690 q 493 764 390 764 q 705 668 632 764 q 778 396 778 572 q 675 90 778 197 q 375 -17 572 -17 q 236 -9 307 -17 q 128 6 165 -1 l 90 14 l 90 926 l -14 954 l -14 1065 m 294 538 l 294 157 q 397 146 326 146 q 563 382 563 146 q 426 600 563 600 q 356 585 389 600 q 308 553 324 569 l 294 538 z "},"c":{"ha":715,"x_min":42,"x_max":701,"o":"m 632 222 l 701 104 q 403 -14 567 -14 q 137 86 232 -14 q 42 364 42 186 q 142 657 42 550 q 424 764 243 764 q 538 752 476 764 q 633 728 599 740 l 667 715 l 660 489 l 535 489 l 515 589 q 419 600 475 600 q 299 548 342 600 q 257 392 257 496 q 301 211 257 274 q 431 149 344 149 q 483 153 458 149 q 532 168 508 158 q 569 185 556 178 q 605 206 582 192 q 632 222 628 219 z "},"d":{"ha":868,"x_min":44,"x_max":843,"o":"m 843 10 l 551 0 l 539 74 q 329 -14 451 -14 q 115 83 186 -14 q 44 357 44 181 q 144 659 44 554 q 438 764 243 764 q 528 750 483 764 l 528 926 l 417 954 l 417 1065 l 732 1076 l 732 149 l 843 121 l 843 10 m 528 228 l 528 583 q 419 604 493 604 q 260 368 260 604 q 393 149 260 149 q 466 169 432 149 q 514 208 500 189 l 528 228 z "},"e":{"ha":774,"x_min":49,"x_max":736,"o":"m 728 333 l 267 329 q 317 196 272 243 q 433 149 363 149 q 543 165 485 149 q 633 197 601 181 l 667 214 l 726 103 q 683 71 711 90 q 572 19 656 51 q 410 -14 489 -14 q 141 84 233 -14 q 49 361 49 182 q 147 655 49 546 q 419 764 246 764 q 654 676 572 764 q 736 438 736 589 l 728 333 m 406 601 q 313 563 349 601 q 269 458 278 524 l 519 458 q 406 601 519 601 z "},"f":{"ha":646,"x_min":72,"x_max":736,"o":"m 197 736 l 197 799 q 274 1014 197 935 q 493 1093 350 1093 q 620 1080 560 1093 q 708 1054 681 1067 l 736 1042 l 732 836 l 611 836 l 590 939 q 510 944 556 944 q 403 822 403 944 l 403 736 l 583 736 l 579 597 l 403 597 l 403 146 l 536 111 l 536 0 l 86 0 l 86 111 l 197 146 l 197 597 l 72 597 l 72 715 l 197 736 z "},"g":{"ha":854,"x_min":58,"x_max":822,"o":"m 58 -153 q 94 -58 58 -100 q 167 -1 131 -17 l 204 14 q 181 19 194 15 q 144 47 167 24 q 121 106 121 71 q 193 263 121 149 q 86 479 86 333 q 178 690 86 617 q 419 764 271 764 q 583 731 513 764 l 822 736 l 822 625 l 708 606 q 715 587 708 604 q 727 546 722 569 q 732 496 732 522 q 642 281 732 351 q 399 211 551 211 q 366 213 382 211 q 340 216 350 214 q 328 218 329 218 l 322 125 l 528 125 q 733 69 661 125 q 806 -90 806 14 q 708 -282 806 -210 q 417 -354 610 -354 q 150 -308 242 -354 q 58 -153 58 -262 m 413 621 q 294 489 294 621 q 406 350 294 350 q 497 383 469 350 q 524 489 524 417 q 413 621 524 621 m 472 -28 l 326 -28 q 308 -37 319 -31 q 278 -68 297 -44 q 260 -118 260 -92 q 301 -185 260 -168 q 433 -201 342 -201 q 569 -179 528 -201 q 611 -107 611 -157 q 578 -45 611 -62 q 472 -28 546 -28 z "},"h":{"ha":926,"x_min":35,"x_max":896,"o":"m 35 1065 l 350 1076 l 350 669 q 583 764 464 764 q 743 698 688 764 q 799 514 799 632 l 799 146 l 896 111 l 896 0 l 521 0 l 521 111 l 593 144 l 593 482 q 501 593 593 593 q 429 574 467 593 q 371 538 392 556 l 350 519 l 350 146 l 424 111 l 424 0 l 35 0 l 35 111 l 146 146 l 146 926 l 35 954 l 35 1065 z "},"i":{"ha":497,"x_min":49,"x_max":461,"o":"m 49 739 l 364 750 l 364 146 l 461 111 l 461 0 l 49 0 l 49 111 l 160 146 l 160 600 l 49 628 l 49 739 m 133 979 q 169 1070 133 1036 q 253 1104 204 1104 q 369 979 369 1104 q 334 887 369 921 q 253 853 299 853 q 165 885 196 853 q 133 979 133 918 z "},"j":{"ha":443,"x_min":-65,"x_max":346,"o":"m 40 -340 l -65 -331 l -49 -201 l 24 -201 q 111 -167 85 -201 q 138 -64 138 -133 l 138 600 l 26 628 l 26 739 l 343 750 l 343 18 q 276 -255 343 -169 q 40 -340 210 -340 m 110 979 q 144 1069 110 1035 q 229 1104 178 1104 q 346 979 346 1104 q 312 888 346 924 q 229 853 278 853 q 141 885 172 853 q 110 979 110 918 z "},"k":{"ha":882,"x_min":35,"x_max":868,"o":"m 35 1065 l 350 1076 l 350 468 l 440 468 l 536 615 l 475 635 l 475 746 l 833 753 l 833 635 l 736 617 l 607 432 l 763 144 l 868 111 l 868 0 l 611 0 l 439 340 l 350 340 l 350 146 l 426 111 l 426 0 l 35 0 l 35 111 l 146 146 l 146 926 l 35 954 l 35 1065 z "},"l":{"ha":497,"x_min":35,"x_max":488,"o":"m 35 1065 l 356 1076 l 356 146 l 488 111 l 488 0 l 35 0 l 35 111 l 146 146 l 146 926 l 35 954 l 35 1065 z "},"m":{"ha":1364,"x_min":49,"x_max":1333,"o":"m 1239 514 l 1239 146 l 1333 111 l 1333 0 l 961 0 l 961 111 l 1035 146 l 1035 472 q 1016 558 1035 531 q 954 586 997 586 q 876 568 914 586 q 819 532 838 550 l 800 514 l 800 146 l 872 111 l 872 0 l 522 0 l 522 111 l 594 146 l 594 472 q 576 559 594 532 q 515 586 558 586 q 436 568 475 586 q 378 532 397 550 l 360 514 l 360 146 l 433 111 l 433 0 l 49 0 l 49 111 l 156 146 l 156 601 l 50 628 l 50 739 l 336 750 l 346 651 q 383 683 360 664 q 471 733 407 701 q 589 764 535 764 q 778 644 726 764 q 826 688 799 665 q 914 737 854 710 q 1029 764 974 764 q 1186 699 1133 764 q 1239 514 1239 633 z "},"n":{"ha":938,"x_min":49,"x_max":906,"o":"m 49 739 l 336 750 l 346 654 q 386 684 361 667 q 478 731 411 701 q 601 761 546 761 q 755 695 701 761 q 808 514 808 629 l 808 146 q 860 128 826 140 q 906 111 893 115 l 906 0 l 531 0 l 531 111 l 604 146 l 604 482 q 578 562 604 531 q 510 593 553 593 q 434 573 471 593 q 379 533 397 553 l 361 514 l 361 146 l 433 111 l 433 0 l 49 0 l 49 111 l 156 146 l 156 600 l 49 628 l 49 739 z "},"o":{"ha":822,"x_min":49,"x_max":774,"o":"m 424 764 q 683 666 592 764 q 774 389 774 568 q 673 94 774 203 q 403 -14 572 -14 q 49 368 49 -14 q 150 659 49 554 q 424 764 251 764 m 417 604 q 301 553 338 604 q 264 375 264 501 q 299 201 264 256 q 410 146 333 146 q 522 200 486 146 q 558 382 558 254 q 524 549 558 494 q 417 604 490 604 z "},"p":{"ha":875,"x_min":28,"x_max":826,"o":"m 139 600 l 28 628 l 28 739 l 319 750 l 332 672 q 362 697 343 682 q 434 738 381 713 q 538 764 488 764 q 753 666 679 764 q 826 396 826 568 q 731 92 826 199 q 447 -14 636 -14 q 343 0 399 -14 l 343 -176 l 475 -208 l 475 -319 l 31 -319 l 31 -208 l 139 -176 l 139 600 m 343 524 l 343 153 q 451 132 378 132 q 574 191 538 132 q 611 371 611 250 q 472 600 611 600 q 400 581 432 600 q 356 542 368 561 l 343 524 z "},"q":{"ha":822,"x_min":44,"x_max":836,"o":"m 732 -174 l 836 -208 l 836 -319 l 396 -319 l 396 -208 l 528 -174 l 528 61 q 499 40 518 53 q 428 7 481 28 q 329 -14 376 -14 q 116 84 188 -14 q 44 354 44 182 q 147 656 44 547 q 447 764 250 764 q 586 756 515 764 q 694 739 657 747 l 732 731 l 732 -174 m 528 211 l 528 593 q 419 604 489 604 q 260 368 260 604 q 292 203 260 258 q 397 149 325 149 q 469 165 436 149 q 514 196 501 181 l 528 211 z "},"r":{"ha":681,"x_min":49,"x_max":667,"o":"m 49 739 l 336 750 l 349 654 q 379 685 360 667 q 449 733 399 703 q 542 764 500 764 q 606 758 575 764 q 653 744 638 751 l 667 739 l 656 475 l 535 475 l 514 593 q 440 574 478 593 q 383 535 403 554 l 364 515 l 364 146 l 496 111 l 496 0 l 49 0 l 49 111 l 160 146 l 160 600 l 49 628 l 49 739 z "},"s":{"ha":682,"x_min":53,"x_max":632,"o":"m 185 243 l 196 146 q 310 132 242 132 q 419 207 419 132 q 382 262 419 239 q 290 301 344 285 q 182 341 236 318 q 90 411 128 364 q 53 526 53 458 q 135 706 53 649 q 339 764 217 764 q 459 753 394 764 q 561 733 524 743 l 597 722 q 592 514 594 653 l 469 514 l 449 604 q 357 618 413 618 q 289 599 314 618 q 264 547 264 581 q 302 493 264 515 q 394 454 340 471 q 501 416 447 438 q 594 349 556 394 q 632 236 632 303 q 545 52 632 118 q 313 -14 458 -14 q 190 -6 254 -14 q 92 8 126 1 l 57 17 l 57 243 l 185 243 z "},"t":{"ha":607,"x_min":24,"x_max":590,"o":"m 354 -14 q 196 60 239 -14 q 153 319 153 135 l 153 579 l 24 579 l 24 711 l 153 729 l 153 921 l 357 958 l 357 729 l 551 729 l 551 579 l 357 579 l 357 265 q 372 168 357 196 q 431 140 388 140 q 540 172 481 140 l 590 72 q 354 -14 468 -14 z "},"u":{"ha":910,"x_min":22,"x_max":881,"o":"m 124 235 l 124 603 l 22 628 l 22 739 l 329 750 l 329 274 q 347 190 329 217 q 407 163 365 163 q 487 181 446 163 q 550 219 528 200 l 571 239 l 571 603 l 468 628 l 468 739 l 775 750 l 775 146 l 881 118 l 881 10 l 597 0 l 583 97 q 570 85 579 93 q 535 58 561 78 q 481 24 508 39 q 413 -2 453 10 q 338 -14 374 -14 q 178 51 233 -14 q 124 235 124 117 z "},"v":{"ha":832,"x_min":7,"x_max":825,"o":"m 419 208 l 542 614 l 461 632 l 461 743 l 825 750 l 825 632 l 746 614 l 522 0 l 293 0 l 74 610 l 7 632 l 7 743 l 371 750 l 371 632 l 293 618 l 419 208 z "},"w":{"ha":1219,"x_min":8,"x_max":1211,"o":"m 707 757 l 858 225 l 940 611 l 856 632 l 856 743 l 1211 750 l 1211 632 l 1138 615 l 953 0 l 740 0 l 631 354 l 606 463 l 571 311 l 469 0 l 258 0 l 69 613 l 8 632 l 8 743 l 372 750 l 372 632 l 285 615 l 376 225 l 524 726 l 707 757 z "},"x":{"ha":822,"x_min":14,"x_max":808,"o":"m 563 743 l 794 750 l 794 632 l 708 614 l 549 375 l 706 139 l 808 111 l 808 0 l 431 0 l 431 111 l 474 126 l 400 249 l 250 0 l 14 0 l 14 111 l 118 139 l 271 368 l 103 614 l 28 632 l 28 743 l 388 750 l 388 632 l 346 624 l 418 501 l 563 743 z "},"y":{"ha":849,"x_min":14,"x_max":842,"o":"m 335 -1 l 88 610 l 14 632 l 14 743 l 385 750 l 385 632 l 307 618 l 431 229 l 549 614 l 468 632 l 468 743 l 842 750 l 842 632 l 756 614 l 551 44 q 494 -94 521 -37 q 422 -210 467 -150 q 315 -302 378 -271 q 174 -333 253 -333 l 39 -322 l 58 -174 l 149 -174 q 220 -156 188 -174 q 276 -106 253 -139 q 310 -53 299 -74 q 335 -1 321 -32 z "},"z":{"ha":718,"x_min":69,"x_max":674,"o":"m 86 750 l 669 750 l 669 621 l 313 146 l 525 146 l 551 271 l 674 271 l 674 0 l 69 0 l 69 128 l 432 604 l 232 604 l 208 496 l 86 496 l 86 750 z "},"{":{"ha":561,"x_min":42,"x_max":519,"o":"m 351 792 l 351 646 q 323 493 351 550 q 224 410 294 436 q 351 213 351 360 l 351 -28 q 386 -140 351 -111 q 519 -169 421 -169 l 519 -312 l 426 -312 q 231 -244 288 -312 q 174 -18 174 -176 l 174 196 q 144 303 174 265 q 42 340 115 340 l 42 479 q 144 517 115 479 q 174 624 174 554 l 174 819 q 236 1015 174 954 q 426 1076 299 1076 l 519 1076 l 519 933 q 386 904 421 933 q 351 792 351 875 z "},"|":{"ha":392,"x_min":114,"x_max":278,"o":"m 278 -319 l 114 -319 l 114 1049 l 278 1049 l 278 -319 z "},"}":{"ha":568,"x_min":56,"x_max":533,"o":"m 222 606 l 222 792 q 188 904 222 875 q 56 933 154 933 l 56 1076 l 149 1076 q 340 1015 278 1076 q 401 819 401 953 l 401 624 q 431 517 401 554 q 533 479 460 479 l 533 340 q 431 303 460 340 q 401 196 401 265 l 401 -18 q 343 -244 401 -176 q 147 -312 285 -312 l 56 -312 l 56 -169 q 188 -140 154 -169 q 222 -28 222 -111 l 222 213 q 351 410 222 360 q 222 606 222 460 z "},"~":{"ha":869,"x_min":60,"x_max":796,"o":"m 146 290 l 60 361 q 69 379 63 368 q 96 418 75 390 q 140 467 117 446 q 203 507 164 489 q 283 525 242 525 q 434 478 344 525 q 571 432 524 432 q 638 451 604 432 q 688 489 671 469 l 704 508 l 796 439 q 787 421 793 432 q 759 381 781 410 q 714 331 738 353 q 653 290 690 308 q 576 272 615 272 q 420 319 517 272 q 275 365 324 365 q 210 347 242 365 q 161 308 178 328 l 146 290 z "},"¡":{"ha":468,"x_min":114,"x_max":350,"o":"m 350 647 q 315 556 350 590 q 231 522 279 522 q 144 555 174 522 q 114 647 114 588 q 149 740 114 706 q 235 774 185 774 q 350 647 350 774 m 128 -307 l 153 393 l 319 400 l 346 -307 l 128 -307 z "},"¢":{"ha":708,"x_min":53,"x_max":674,"o":"m 460 0 l 310 0 l 310 153 q 119 264 186 175 q 53 490 53 353 q 119 725 53 632 q 310 844 185 818 l 310 979 l 460 979 l 460 853 q 551 837 504 849 q 622 815 597 825 l 646 806 l 639 594 l 521 594 l 501 690 q 413 701 461 701 q 257 517 257 701 q 422 299 257 299 q 464 302 443 299 q 499 310 485 306 q 533 322 514 314 q 560 335 551 331 q 585 351 568 340 q 606 363 603 361 l 674 254 q 460 150 576 168 l 460 0 z "},"£":{"ha":868,"x_min":83,"x_max":792,"o":"m 83 0 l 83 121 l 153 146 q 206 190 193 160 q 218 288 218 219 q 211 444 218 301 l 83 444 l 83 574 l 201 593 q 197 708 197 651 q 269 920 197 844 q 493 996 342 996 q 646 984 572 996 q 753 960 719 972 l 788 947 l 788 722 l 663 722 l 635 825 q 517 833 583 833 q 403 711 403 833 l 403 685 q 406 597 403 653 l 606 597 l 606 444 l 417 444 q 424 308 424 364 q 372 163 424 208 l 631 163 l 663 306 l 792 306 l 792 0 l 83 0 z "},"¤":{"ha":867,"x_min":71,"x_max":796,"o":"m 146 411 q 182 556 146 492 l 72 667 l 175 778 l 286 667 q 440 708 360 708 q 585 674 518 708 l 692 779 l 794 668 l 692 565 q 726 419 726 500 q 688 265 726 335 l 796 158 l 692 49 l 582 157 q 433 118 515 118 q 279 156 342 118 l 175 51 l 71 163 l 176 267 q 146 411 146 332 m 315 414 q 436 263 315 263 q 558 414 558 263 q 436 560 558 560 q 315 414 315 560 z "},"¥":{"ha":933,"x_min":14,"x_max":919,"o":"m 117 435 l 117 560 l 247 560 l 106 818 l 14 857 l 14 972 l 406 979 l 406 857 l 335 828 l 475 535 l 622 826 l 544 857 l 544 972 l 919 979 l 919 857 l 822 819 l 679 560 l 811 560 l 811 435 l 117 435 m 253 0 l 253 121 l 357 149 l 357 226 l 117 226 l 117 351 l 811 351 l 811 226 l 572 226 l 572 149 l 676 121 l 676 0 l 253 0 z "},"¦":{"ha":413,"x_min":121,"x_max":285,"o":"m 285 507 l 121 507 l 121 1063 l 285 1063 l 285 507 m 285 -368 l 121 -368 l 121 201 l 285 201 l 285 -368 z "},"§":{"ha":742,"x_min":86,"x_max":672,"o":"m 239 72 l 258 -50 q 329 -58 288 -58 q 408 -33 379 -58 q 436 35 436 -8 q 400 118 436 79 q 313 190 364 157 q 210 261 261 224 q 122 356 158 299 q 86 485 86 414 q 183 690 86 619 q 142 839 142 757 q 220 1022 142 951 q 421 1093 299 1093 q 529 1083 475 1093 q 610 1061 583 1072 l 636 1050 l 631 821 l 521 821 l 497 940 q 432 949 463 949 q 352 922 381 949 q 324 854 324 896 q 360 768 324 808 q 447 694 396 728 q 549 623 499 661 q 636 528 600 585 q 672 400 672 471 q 575 197 672 268 q 617 56 617 132 q 539 -134 617 -62 q 338 -206 461 -206 q 232 -196 286 -206 q 150 -175 178 -186 l 122 -165 l 125 72 l 239 72 m 261 508 q 288 439 261 469 q 383 363 315 408 q 474 300 451 318 q 499 378 499 331 q 472 447 499 417 q 376 523 444 478 q 285 585 307 568 q 261 508 261 553 z "},"¨":{"ha":756,"x_min":125,"x_max":631,"o":"m 125 989 q 155 1067 125 1038 q 228 1097 185 1097 q 302 1069 276 1097 q 328 989 328 1040 q 298 910 328 939 q 225 881 268 881 q 125 989 125 881 m 428 989 q 458 1067 428 1038 q 531 1097 489 1097 q 631 989 631 1097 q 601 910 631 939 q 528 881 571 881 q 428 989 428 881 z "},"©":{"ha":1143,"x_min":51,"x_max":1090,"o":"m 51 479 q 199 851 51 703 q 571 999 347 999 q 943 857 796 999 q 1090 493 1090 715 q 936 122 1090 271 q 557 -26 782 -26 q 192 114 333 -26 q 51 479 51 254 m 193 486 q 294 210 193 315 q 564 104 396 104 q 841 210 733 104 q 949 486 949 317 q 841 761 949 654 q 564 868 733 868 q 294 762 396 868 q 193 486 193 656 m 726 379 l 778 300 q 567 211 671 211 q 380 280 449 211 q 311 475 311 349 q 383 689 311 610 q 582 768 454 768 q 665 758 621 768 q 736 736 710 747 l 761 726 l 757 571 l 661 571 l 646 647 q 579 656 611 656 q 464 493 464 656 q 585 326 464 326 q 664 344 624 326 q 726 379 704 361 z "},"ª":{"ha":650,"x_min":78,"x_max":610,"o":"m 92 188 l 92 326 l 610 326 l 610 188 l 92 188 m 610 456 l 417 447 l 397 517 q 375 495 389 508 q 319 460 361 482 q 235 438 276 438 q 119 479 160 438 q 78 599 78 521 q 315 763 78 763 l 379 763 l 379 813 q 360 860 379 843 q 310 876 342 876 q 267 873 289 876 q 235 867 246 869 l 224 864 l 211 804 l 113 804 l 104 956 q 331 996 236 996 q 490 949 444 996 q 536 797 536 903 l 536 564 l 610 547 l 610 456 m 228 610 q 243 574 228 588 q 283 560 258 560 q 329 572 306 560 q 367 594 353 583 l 379 607 l 379 672 l 325 672 q 228 610 228 672 z "},"«":{"ha":832,"x_min":76,"x_max":756,"o":"m 599 368 l 756 146 l 640 68 l 424 314 l 424 421 l 640 667 l 756 590 l 599 368 m 251 368 l 403 146 l 288 68 l 76 314 l 76 421 l 288 667 l 403 590 l 251 368 z "},"¬":{"ha":892,"x_min":83,"x_max":815,"o":"m 83 361 l 83 521 l 815 521 l 815 111 l 639 111 l 639 361 l 83 361 z "},"®":{"ha":1004,"x_min":63,"x_max":942,"o":"m 63 624 q 188 939 63 814 q 503 1064 314 1064 q 817 945 692 1064 q 942 639 942 826 q 810 324 942 450 q 488 199 679 199 q 181 317 300 199 q 63 624 63 435 m 278 857 q 239 815 278 857 q 199 632 199 772 q 278 406 199 492 q 496 321 358 321 q 721 407 635 321 q 807 632 807 493 q 721 856 807 771 q 496 942 635 942 q 278 857 358 942 m 508 482 l 508 419 l 308 419 l 308 482 l 356 499 l 356 774 l 308 793 l 308 851 l 507 854 q 511 854 510 854 q 598 840 561 854 q 656 797 635 826 q 678 728 678 768 q 604 611 678 647 q 628 581 615 604 l 671 499 l 717 482 l 717 419 l 592 419 l 535 546 q 515 579 524 571 q 494 588 507 588 l 463 588 l 463 499 l 508 482 m 463 772 l 463 661 l 499 661 q 549 676 528 661 q 569 717 569 692 q 508 772 569 772 l 463 772 z "},"¯":{"ha":486,"x_min":58,"x_max":426,"o":"m 58 889 l 58 1038 l 426 1038 l 426 889 l 58 889 z "},"°":{"ha":592,"x_min":63,"x_max":529,"o":"m 63 806 q 128 967 63 906 q 296 1029 193 1029 q 464 970 399 1029 q 529 813 529 911 q 464 644 529 707 q 296 582 399 582 q 127 642 192 582 q 63 806 63 701 m 201 811 q 226 733 201 761 q 296 706 250 706 q 366 733 342 706 q 390 811 390 761 q 365 881 390 856 q 296 906 339 906 q 227 881 253 906 q 201 811 201 856 z "},"±":{"ha":864,"x_min":72,"x_max":792,"o":"m 72 400 l 72 563 l 340 563 l 340 767 l 525 767 l 525 563 l 792 563 l 792 400 l 525 400 l 525 190 l 340 190 l 340 400 l 72 400 m 72 -50 l 72 108 l 792 108 l 792 -50 l 72 -50 z "},"²":{"ha":561,"x_min":46,"x_max":507,"o":"m 46 528 q 260 701 222 663 q 313 804 313 757 q 242 858 313 858 q 212 856 226 858 q 189 850 197 853 l 182 849 l 172 775 l 54 775 l 50 958 q 256 993 157 993 q 435 952 369 993 q 501 826 501 911 q 454 689 501 747 q 283 535 407 631 l 507 535 l 507 389 l 46 389 l 46 528 z "},"³":{"ha":549,"x_min":24,"x_max":503,"o":"m 489 839 q 458 749 489 785 q 376 700 428 714 q 466 653 429 690 q 503 565 503 617 q 428 424 503 471 q 239 378 354 378 q 137 391 190 378 q 53 417 83 404 l 24 431 l 61 547 q 226 510 147 510 q 295 530 269 510 q 321 575 321 550 q 219 638 321 638 l 144 638 l 144 742 l 221 742 q 315 808 315 742 q 239 864 315 864 l 165 856 l 158 797 l 44 797 l 40 961 q 256 993 160 993 q 428 953 368 993 q 489 839 489 914 z "},"´":{"ha":581,"x_min":100,"x_max":481,"o":"m 481 1028 l 165 871 l 100 982 l 400 1178 l 481 1028 z "},"µ":{"ha":915,"x_min":24,"x_max":886,"o":"m 126 -326 l 126 600 l 24 628 l 24 739 l 331 750 l 331 265 q 411 163 331 163 q 492 181 451 163 q 556 219 533 200 l 576 239 l 576 600 l 474 628 l 474 739 l 781 750 l 781 146 l 886 118 l 886 10 l 604 0 l 590 99 q 556 67 578 86 q 479 17 535 49 q 382 -14 424 -14 q 331 -6 353 -14 l 331 -326 l 126 -326 z "},"¶":{"ha":1001,"x_min":69,"x_max":925,"o":"m 214 -236 l 214 -121 l 328 -90 l 328 379 q 143 476 217 390 q 69 682 69 561 q 153 895 69 811 q 382 979 238 979 l 639 979 l 925 968 l 925 857 l 814 829 l 814 -236 l 639 -236 l 639 829 l 493 829 l 493 -236 l 214 -236 z "},"·":{"ha":415,"x_min":85,"x_max":329,"o":"m 85 425 q 119 521 85 486 q 210 556 154 556 q 329 425 329 556 q 295 330 329 364 q 206 296 261 296 q 85 425 85 296 z "},"¸":{"ha":599,"x_min":132,"x_max":476,"o":"m 283 -232 q 334 -217 315 -232 q 353 -179 353 -203 q 239 -119 353 -119 l 239 0 l 357 0 l 357 -60 q 444 -103 413 -71 q 476 -183 476 -135 q 428 -285 476 -246 q 301 -324 379 -324 q 217 -312 260 -324 q 153 -290 175 -301 l 132 -279 l 175 -203 q 283 -232 231 -232 z "},"¹":{"ha":546,"x_min":21,"x_max":518,"o":"m 518 513 l 518 389 l 82 389 l 82 513 l 215 513 l 215 803 l 89 726 l 21 842 l 240 979 l 392 979 l 392 513 l 518 513 z "},"º":{"ha":686,"x_min":69,"x_max":617,"o":"m 353 996 q 546 926 475 996 q 617 728 617 856 q 538 519 617 600 q 336 438 460 438 q 140 506 211 438 q 69 708 69 575 q 149 917 69 839 q 353 996 229 996 m 346 868 q 243 714 243 868 q 343 565 243 565 q 443 722 443 565 q 346 868 443 868 m 81 188 l 81 326 l 606 326 l 606 188 l 81 188 z "},"»":{"ha":832,"x_min":76,"x_max":756,"o":"m 76 146 l 233 368 l 76 590 l 192 667 l 408 421 l 408 314 l 192 68 l 76 146 m 429 146 l 581 368 l 429 590 l 544 667 l 756 421 l 756 314 l 544 68 l 429 146 z "},"¼":{"ha":1489,"x_min":63,"x_max":1413,"o":"m 354 0 l 921 979 l 1122 979 l 556 0 l 354 0 m 1132 597 l 1332 574 l 1332 236 l 1413 236 l 1413 107 l 1332 107 l 1332 0 l 1156 0 l 1156 107 l 878 107 l 858 224 l 1132 597 m 544 513 l 544 389 l 124 389 l 124 513 l 257 513 l 257 803 l 131 726 l 63 842 l 282 979 l 433 979 l 433 513 l 544 513 m 1156 413 l 1024 236 l 1156 236 l 1156 413 z "},"½":{"ha":1490,"x_min":63,"x_max":1410,"o":"m 356 0 l 922 979 l 1124 979 l 557 0 l 356 0 m 949 139 q 1157 308 1124 274 q 1215 417 1215 367 q 1143 469 1215 469 q 1113 467 1128 469 q 1092 461 1099 464 l 1083 460 l 1075 386 l 957 386 l 953 569 q 1157 604 1058 604 q 1338 563 1272 604 q 1404 438 1404 522 q 1357 300 1404 358 q 1186 146 1310 242 l 1410 146 l 1410 0 l 949 0 l 949 139 m 544 513 l 544 389 l 124 389 l 124 513 l 257 513 l 257 803 l 131 726 l 63 842 l 282 979 l 433 979 l 433 513 l 544 513 z "},"¾":{"ha":1464,"x_min":56,"x_max":1388,"o":"m 331 0 l 897 979 l 1099 979 l 532 0 l 331 0 m 854 107 l 835 224 l 1107 597 l 1307 574 l 1307 236 l 1388 236 l 1388 107 l 1307 107 l 1307 0 l 1131 0 l 1131 107 l 854 107 m 519 828 q 407 688 519 718 q 497 642 458 679 q 535 553 535 604 q 460 413 535 460 q 271 367 386 367 q 168 379 222 367 q 85 406 114 392 l 56 418 l 93 535 q 257 499 178 499 q 323 516 293 499 q 353 564 353 533 q 250 626 353 626 l 176 626 l 176 729 l 253 729 q 346 799 346 729 q 271 853 346 853 q 234 850 253 853 q 206 844 215 847 l 196 843 l 189 786 l 76 786 l 71 949 q 288 981 192 981 q 460 941 400 981 q 519 828 519 901 m 1131 413 l 999 236 l 1131 236 l 1131 413 z "},"¿":{"ha":640,"x_min":69,"x_max":554,"o":"m 514 647 q 478 556 514 590 q 394 522 443 522 q 308 555 338 522 q 278 647 278 588 q 313 740 278 706 q 397 774 347 774 q 484 741 454 774 q 514 647 514 708 m 317 404 l 500 413 q 513 276 513 322 q 476 185 513 232 q 396 106 439 139 q 316 29 353 74 q 279 -58 279 -15 q 404 -150 279 -150 q 461 -146 431 -150 q 510 -139 492 -142 l 528 -135 l 554 -279 q 347 -312 438 -312 q 213 -294 272 -312 q 111 -225 153 -275 q 69 -97 69 -175 q 95 15 69 -37 q 158 107 121 68 q 231 181 194 146 q 294 252 268 215 q 319 324 319 289 l 317 404 z "},"À":{"ha":1058,"x_min":17,"x_max":1042,"o":"m 657 1021 l 342 1176 l 422 1328 l 721 1132 l 657 1021 m 646 979 l 944 153 l 1042 121 l 1042 0 l 600 0 l 600 121 l 704 153 l 671 257 l 363 257 l 328 154 l 436 121 l 436 0 l 17 0 l 17 121 l 118 153 l 424 975 l 646 979 m 521 735 l 411 406 l 625 406 l 521 735 z "},"Á":{"ha":1058,"x_min":17,"x_max":1042,"o":"m 804 1176 l 489 1021 l 425 1132 l 724 1328 l 804 1176 m 646 979 l 944 153 l 1042 121 l 1042 0 l 600 0 l 600 121 l 704 153 l 671 257 l 363 257 l 328 154 l 436 121 l 436 0 l 17 0 l 17 121 l 118 153 l 424 975 l 646 979 m 521 735 l 411 406 l 625 406 l 521 735 z "},"Â":{"ha":1058,"x_min":17,"x_max":1042,"o":"m 535 1167 l 317 1031 l 250 1122 l 463 1304 l 586 1315 l 811 1122 l 744 1031 l 535 1167 m 646 979 l 944 153 l 1042 121 l 1042 0 l 600 0 l 600 121 l 704 153 l 671 257 l 363 257 l 328 154 l 436 121 l 436 0 l 17 0 l 17 121 l 118 153 l 424 975 l 646 979 m 521 735 l 411 406 l 625 406 l 521 735 z "},"Ã":{"ha":1058,"x_min":17,"x_max":1042,"o":"m 646 979 l 944 153 l 1042 121 l 1042 0 l 600 0 l 600 121 l 704 153 l 671 257 l 363 257 l 328 154 l 436 121 l 436 0 l 17 0 l 17 121 l 118 153 l 424 975 l 646 979 m 521 735 l 411 406 l 625 406 l 521 735 m 350 1104 l 285 1168 q 292 1184 288 1174 q 313 1221 296 1194 q 347 1267 329 1247 q 396 1304 365 1288 q 458 1321 426 1321 q 578 1289 508 1321 q 689 1257 649 1257 q 737 1272 713 1257 q 774 1301 761 1286 l 785 1315 l 858 1251 q 851 1235 856 1246 q 830 1199 846 1225 q 795 1153 814 1172 q 747 1117 776 1133 q 685 1100 717 1100 q 563 1131 635 1100 q 451 1161 492 1161 q 400 1147 425 1161 q 363 1118 375 1132 l 350 1104 z "},"Ä":{"ha":1058,"x_min":17,"x_max":1042,"o":"m 646 979 l 944 153 l 1042 121 l 1042 0 l 600 0 l 600 121 l 704 153 l 671 257 l 363 257 l 328 154 l 436 121 l 436 0 l 17 0 l 17 121 l 118 153 l 424 975 l 646 979 m 521 735 l 411 406 l 625 406 l 521 735 m 314 1176 q 344 1255 314 1225 q 417 1285 374 1285 q 491 1256 465 1285 q 517 1176 517 1228 q 487 1097 517 1126 q 414 1068 457 1068 q 314 1176 314 1068 m 617 1176 q 647 1255 617 1225 q 719 1285 678 1285 q 819 1176 819 1285 q 790 1097 819 1126 q 717 1068 760 1068 q 617 1176 617 1068 z "},"Å":{"ha":1058,"x_min":17,"x_max":1042,"o":"m 646 979 l 944 153 l 1042 121 l 1042 0 l 600 0 l 600 121 l 704 153 l 671 257 l 363 257 l 328 154 l 436 121 l 436 0 l 17 0 l 17 121 l 118 153 l 424 975 l 646 979 m 521 735 l 411 406 l 625 406 l 521 735 m 346 1117 q 402 1251 346 1200 q 532 1301 458 1301 q 661 1254 606 1301 q 717 1125 717 1207 q 660 992 717 1043 q 532 940 604 940 q 401 988 457 940 q 346 1117 346 1035 m 464 1121 q 532 1042 464 1042 q 580 1063 561 1042 q 599 1122 599 1083 q 532 1201 599 1201 q 483 1181 501 1201 q 464 1121 464 1160 z "},"Æ":{"ha":1367,"x_min":28,"x_max":1300,"o":"m 894 815 l 894 583 l 1175 583 l 1175 431 l 894 431 l 894 163 l 1140 163 l 1172 281 l 1300 281 l 1300 0 l 576 0 l 576 121 l 679 156 l 679 267 l 411 267 l 356 150 l 442 121 l 442 0 l 28 0 l 28 121 l 142 156 l 463 818 l 344 857 l 344 972 l 610 979 l 1283 979 l 1283 708 l 1154 708 l 1119 815 l 894 815 m 679 417 l 679 815 l 660 815 l 476 417 l 679 417 z "},"Ç":{"ha":906,"x_min":56,"x_max":864,"o":"m 788 260 l 864 135 q 851 122 860 131 q 813 92 842 114 q 752 51 783 69 q 672 15 721 33 q 574 -11 624 -3 l 574 -61 q 692 -186 692 -85 q 642 -286 692 -247 q 517 -325 592 -325 q 431 -313 475 -325 q 365 -289 388 -301 l 343 -278 l 388 -200 q 501 -232 446 -232 q 548 -218 531 -232 q 565 -181 565 -204 q 451 -121 565 -121 l 451 -14 q 158 124 261 -1 q 56 475 56 249 q 182 857 56 718 q 524 996 308 996 q 679 980 599 996 q 803 947 760 964 l 847 931 l 840 667 l 704 667 l 672 800 q 517 822 607 822 q 288 482 288 822 q 524 163 288 163 q 651 187 585 163 q 753 236 717 211 l 788 260 z "},"È":{"ha":868,"x_min":76,"x_max":801,"o":"m 396 815 l 396 583 l 676 583 l 676 431 l 396 431 l 396 163 l 642 163 l 674 278 l 801 278 l 801 0 l 76 0 l 76 121 l 181 156 l 181 815 l 76 857 l 76 972 l 396 979 l 785 979 l 785 711 l 656 711 l 621 815 l 396 815 m 536 1021 l 221 1176 l 301 1328 l 601 1132 l 536 1021 z "},"É":{"ha":871,"x_min":76,"x_max":801,"o":"m 396 815 l 396 583 l 676 583 l 676 431 l 396 431 l 396 163 l 642 163 l 674 278 l 801 278 l 801 0 l 76 0 l 76 121 l 181 156 l 181 815 l 76 857 l 76 972 l 396 979 l 785 979 l 785 711 l 656 711 l 621 815 l 396 815 m 681 1178 l 365 1021 l 300 1132 l 600 1328 l 681 1178 z "},"Ê":{"ha":871,"x_min":76,"x_max":801,"o":"m 396 815 l 396 583 l 676 583 l 676 431 l 396 431 l 396 163 l 642 163 l 674 278 l 801 278 l 801 0 l 76 0 l 76 121 l 181 156 l 181 815 l 76 857 l 76 972 l 396 979 l 785 979 l 785 711 l 656 711 l 621 815 l 396 815 m 475 1167 l 257 1031 l 190 1122 l 403 1304 l 526 1315 l 751 1122 l 685 1031 l 475 1167 z "},"Ë":{"ha":871,"x_min":76,"x_max":801,"o":"m 396 815 l 396 583 l 676 583 l 676 431 l 396 431 l 396 163 l 642 163 l 674 278 l 801 278 l 801 0 l 76 0 l 76 121 l 181 156 l 181 815 l 76 857 l 76 972 l 396 979 l 785 979 l 785 711 l 656 711 l 621 815 l 396 815 m 201 1178 q 231 1256 201 1226 q 304 1286 261 1286 q 378 1258 353 1286 q 404 1178 404 1229 q 374 1099 404 1128 q 301 1069 344 1069 q 201 1178 201 1069 m 504 1178 q 535 1256 504 1226 q 607 1286 565 1286 q 707 1178 707 1286 q 677 1099 707 1128 q 604 1069 647 1069 q 504 1178 504 1069 z "},"Ì":{"ha":514,"x_min":13,"x_max":458,"o":"m 458 121 l 458 0 l 35 0 l 35 121 l 139 156 l 139 815 l 35 857 l 35 972 l 458 979 l 458 857 l 354 815 l 354 156 l 458 121 m 328 1021 l 13 1176 l 93 1328 l 393 1132 l 328 1021 z "},"Í":{"ha":556,"x_min":56,"x_max":507,"o":"m 479 121 l 479 0 l 56 0 l 56 121 l 160 156 l 160 815 l 56 857 l 56 972 l 479 979 l 479 857 l 375 815 l 375 156 l 479 121 m 507 1178 l 192 1021 l 126 1132 l 426 1328 l 507 1178 z "},"Î":{"ha":624,"x_min":28,"x_max":589,"o":"m 525 121 l 525 0 l 101 0 l 101 121 l 206 156 l 206 815 l 101 857 l 101 972 l 525 979 l 525 857 l 421 815 l 421 156 l 525 121 m 313 1167 l 94 1031 l 28 1122 l 240 1304 l 364 1315 l 589 1122 l 522 1031 l 313 1167 z "},"Ï":{"ha":561,"x_min":36,"x_max":528,"o":"m 36 1176 q 66 1255 36 1225 q 139 1285 96 1285 q 213 1256 188 1285 q 239 1176 239 1228 q 209 1097 239 1126 q 136 1068 179 1068 q 36 1176 36 1068 m 325 1176 q 356 1255 325 1225 q 428 1285 386 1285 q 528 1176 528 1285 q 498 1097 528 1126 q 425 1068 468 1068 q 325 1176 325 1068 m 492 121 l 492 0 l 68 0 l 68 121 l 172 156 l 172 815 l 68 857 l 68 972 l 492 979 l 492 857 l 388 815 l 388 156 l 492 121 z "},"Ð":{"ha":1057,"x_min":69,"x_max":988,"o":"m 79 433 l 79 586 l 194 586 l 194 815 l 69 857 l 69 972 l 410 979 l 547 979 q 872 857 757 979 q 988 503 988 735 q 863 135 988 269 q 526 0 738 0 l 69 0 l 69 121 l 194 156 l 194 433 l 79 433 m 408 815 l 408 586 l 576 586 l 576 433 l 408 433 l 408 163 l 529 163 q 697 240 638 163 q 756 496 756 317 q 701 740 756 665 q 540 815 646 815 l 408 815 z "},"Ñ":{"ha":1090,"x_min":49,"x_max":1051,"o":"m 326 1072 l 260 1126 q 267 1142 263 1132 q 288 1179 271 1153 q 322 1226 304 1206 q 371 1263 340 1246 q 433 1279 401 1279 q 559 1247 483 1279 q 675 1215 635 1215 q 723 1230 699 1215 q 758 1258 747 1244 l 771 1274 l 847 1215 q 839 1200 844 1210 q 815 1165 833 1190 q 776 1121 796 1140 q 724 1086 756 1101 q 660 1071 692 1071 q 538 1098 610 1071 q 426 1125 467 1125 q 375 1112 400 1125 q 339 1086 350 1099 l 326 1072 m 451 121 l 451 0 l 49 0 l 49 121 l 153 156 l 153 815 l 49 857 l 49 972 l 382 979 l 757 338 l 757 815 l 656 857 l 656 972 l 1051 979 l 1051 857 l 947 815 l 947 0 l 715 0 l 343 629 l 343 156 l 451 121 z "},"Ò":{"ha":1049,"x_min":76,"x_max":972,"o":"m 535 996 q 858 866 743 996 q 972 503 972 736 q 844 125 972 268 q 507 -18 715 -18 q 188 110 299 -18 q 76 482 76 238 q 199 858 76 721 q 535 996 322 996 m 528 822 q 364 745 419 822 q 308 489 308 668 q 359 237 308 318 q 514 156 410 156 q 681 235 624 156 q 739 496 739 315 q 686 744 739 665 q 528 822 633 822 m 606 1021 l 290 1176 l 371 1328 l 671 1132 l 606 1021 z "},"Ó":{"ha":1049,"x_min":76,"x_max":972,"o":"m 535 996 q 858 866 743 996 q 972 503 972 736 q 844 125 972 268 q 507 -18 715 -18 q 188 110 299 -18 q 76 482 76 238 q 199 858 76 721 q 535 996 322 996 m 528 822 q 364 745 419 822 q 308 489 308 668 q 359 237 308 318 q 514 156 410 156 q 681 235 624 156 q 739 496 739 315 q 686 744 739 665 q 528 822 633 822 m 738 1178 l 422 1021 l 357 1132 l 657 1328 l 738 1178 z "},"Ô":{"ha":1049,"x_min":76,"x_max":972,"o":"m 535 996 q 858 866 743 996 q 972 503 972 736 q 844 125 972 268 q 507 -18 715 -18 q 188 110 299 -18 q 76 482 76 238 q 199 858 76 721 q 535 996 322 996 m 528 822 q 364 745 419 822 q 308 489 308 668 q 359 237 308 318 q 514 156 410 156 q 681 235 624 156 q 739 496 739 315 q 686 744 739 665 q 528 822 633 822 m 535 1167 l 317 1031 l 250 1122 l 463 1304 l 586 1315 l 811 1122 l 744 1031 l 535 1167 z "},"Õ":{"ha":1049,"x_min":76,"x_max":972,"o":"m 299 1079 l 232 1133 q 239 1149 235 1139 q 260 1186 243 1160 q 294 1233 276 1213 q 343 1269 313 1253 q 406 1286 374 1286 q 531 1254 456 1286 q 647 1222 607 1222 q 695 1237 671 1222 q 731 1267 719 1251 l 743 1281 l 819 1222 q 811 1207 817 1217 q 787 1172 806 1197 q 748 1128 768 1147 q 696 1093 728 1108 q 632 1078 664 1078 q 510 1105 582 1078 q 399 1132 439 1132 q 347 1119 372 1132 q 311 1092 322 1106 l 299 1079 m 535 996 q 858 866 743 996 q 972 503 972 736 q 844 125 972 268 q 507 -18 715 -18 q 188 110 299 -18 q 76 482 76 238 q 199 858 76 721 q 535 996 322 996 m 528 822 q 364 745 419 822 q 308 489 308 668 q 359 237 308 318 q 514 156 410 156 q 681 235 624 156 q 739 496 739 315 q 686 744 739 665 q 528 822 633 822 z "},"Ö":{"ha":1049,"x_min":76,"x_max":972,"o":"m 535 996 q 858 866 743 996 q 972 503 972 736 q 844 125 972 268 q 507 -18 715 -18 q 188 110 299 -18 q 76 482 76 238 q 199 858 76 721 q 535 996 322 996 m 528 822 q 364 745 419 822 q 308 489 308 668 q 359 237 308 318 q 514 156 410 156 q 681 235 624 156 q 739 496 739 315 q 686 744 739 665 q 528 822 633 822 m 269 1176 q 299 1255 269 1225 q 372 1285 329 1285 q 447 1256 421 1285 q 472 1176 472 1228 q 442 1097 472 1126 q 369 1068 413 1068 q 269 1176 269 1068 m 572 1176 q 603 1255 572 1225 q 675 1285 633 1285 q 775 1176 775 1285 q 745 1097 775 1126 q 672 1068 715 1068 q 572 1176 572 1068 z "},"×":{"ha":851,"x_min":74,"x_max":778,"o":"m 74 610 l 190 728 l 425 492 l 661 728 l 778 610 l 543 375 l 778 140 l 661 22 l 425 258 l 190 22 l 74 140 l 308 375 l 74 610 z "},"Ø":{"ha":1069,"x_min":86,"x_max":982,"o":"m 226 -153 l 103 -82 l 211 96 q 86 482 86 224 q 210 858 86 721 q 544 996 333 996 q 738 958 653 996 l 824 1101 l 947 1031 l 854 879 q 982 503 982 749 q 853 126 982 269 q 517 -17 725 -17 q 329 17 411 -17 l 226 -153 m 538 822 q 375 747 431 822 q 319 504 319 672 q 349 321 319 385 q 639 799 386 383 q 538 822 594 822 m 750 496 q 719 657 750 593 l 428 179 q 524 156 468 156 q 750 496 750 156 z "},"Ù":{"ha":1086,"x_min":44,"x_max":1042,"o":"m 364 815 l 364 375 q 404 203 364 254 q 544 153 444 153 q 686 209 650 153 q 722 396 722 265 l 722 815 l 614 857 l 614 972 l 1042 979 l 1042 857 l 938 815 l 938 396 q 846 85 938 188 q 538 -17 754 -17 q 240 78 332 -17 q 149 375 149 172 l 149 815 l 44 857 l 44 972 l 472 979 l 472 857 l 364 815 m 619 1021 l 304 1176 l 385 1328 l 685 1132 l 619 1021 z "},"Ú":{"ha":1086,"x_min":44,"x_max":1042,"o":"m 364 815 l 364 375 q 404 203 364 254 q 544 153 444 153 q 686 209 650 153 q 722 396 722 265 l 722 815 l 614 857 l 614 972 l 1042 979 l 1042 857 l 938 815 l 938 396 q 846 85 938 188 q 538 -17 754 -17 q 240 78 332 -17 q 149 375 149 172 l 149 815 l 44 857 l 44 972 l 472 979 l 472 857 l 364 815 m 814 1178 l 499 1021 l 433 1132 l 733 1328 l 814 1178 z "},"Û":{"ha":1086,"x_min":44,"x_max":1042,"o":"m 364 815 l 364 375 q 404 203 364 254 q 544 153 444 153 q 686 209 650 153 q 722 396 722 265 l 722 815 l 614 857 l 614 972 l 1042 979 l 1042 857 l 938 815 l 938 396 q 846 85 938 188 q 538 -17 754 -17 q 240 78 332 -17 q 149 375 149 172 l 149 815 l 44 857 l 44 972 l 472 979 l 472 857 l 364 815 m 543 1167 l 325 1031 l 258 1122 l 471 1304 l 594 1315 l 819 1122 l 753 1031 l 543 1167 z "},"Ü":{"ha":1086,"x_min":44,"x_max":1042,"o":"m 364 815 l 364 375 q 404 203 364 254 q 544 153 444 153 q 686 209 650 153 q 722 396 722 265 l 722 815 l 614 857 l 614 972 l 1042 979 l 1042 857 l 938 815 l 938 396 q 846 85 938 188 q 538 -17 754 -17 q 240 78 332 -17 q 149 375 149 172 l 149 815 l 44 857 l 44 972 l 472 979 l 472 857 l 364 815 m 290 1176 q 320 1255 290 1225 q 393 1285 350 1285 q 467 1256 442 1285 q 493 1176 493 1228 q 463 1097 493 1126 q 390 1068 433 1068 q 290 1176 290 1068 m 593 1176 q 624 1255 593 1225 q 696 1285 654 1285 q 796 1176 796 1285 q 766 1097 796 1126 q 693 1068 736 1068 q 593 1176 593 1068 z "},"Ý":{"ha":926,"x_min":10,"x_max":917,"o":"m 674 121 l 674 0 l 250 0 l 250 121 l 354 156 l 354 339 l 100 819 l 10 857 l 10 972 l 403 979 l 403 857 l 332 828 l 471 526 l 618 826 l 542 857 l 542 972 l 917 979 l 917 857 l 821 819 l 569 340 l 569 156 l 674 121 m 731 1178 l 415 1021 l 350 1132 l 650 1328 l 731 1178 z "},"Þ":{"ha":894,"x_min":42,"x_max":853,"o":"m 507 121 l 507 0 l 42 0 l 42 121 l 167 156 l 167 815 l 42 857 l 42 972 l 507 979 l 507 857 l 382 815 l 382 771 l 519 771 q 765 704 678 771 q 853 514 853 638 q 748 293 853 364 q 457 222 643 222 l 382 222 l 382 156 l 507 121 m 494 618 l 382 618 l 382 371 l 471 371 q 596 403 551 371 q 640 500 640 436 q 601 588 640 557 q 494 618 561 618 z "},"ß":{"ha":1093,"x_min":72,"x_max":1063,"o":"m 211 725 l 211 792 q 303 1010 211 928 q 549 1093 396 1093 q 807 1030 715 1093 q 899 858 899 967 q 874 758 899 803 q 820 688 850 713 q 766 632 790 664 q 742 569 742 600 q 775 509 742 535 q 856 464 808 483 q 949 421 903 444 q 1029 351 996 397 q 1063 239 1063 304 q 978 56 1063 125 q 758 -14 893 -14 q 649 -6 708 -14 q 556 8 590 1 l 521 17 l 521 240 l 646 240 l 660 147 q 751 132 697 132 q 851 207 851 132 q 818 265 851 240 q 738 308 785 289 q 644 353 692 328 q 564 426 597 378 q 531 543 531 475 q 556 640 531 597 q 613 704 582 682 q 669 759 643 726 q 694 829 694 792 q 651 911 694 882 q 551 940 608 940 q 452 903 488 940 q 417 801 417 867 l 417 0 l 100 0 l 100 111 l 211 146 l 211 583 l 72 583 l 72 704 l 211 725 z "},"à":{"ha":822,"x_min":51,"x_max":792,"o":"m 792 10 l 517 0 l 492 90 q 458 62 479 79 q 378 15 438 44 q 267 -14 319 -14 q 108 43 165 -14 q 51 204 51 100 q 385 433 51 433 l 482 433 l 482 510 q 375 614 482 614 q 313 608 343 614 q 267 597 282 603 l 253 593 l 232 503 l 107 503 l 97 708 q 399 764 265 764 q 622 702 557 764 q 688 489 688 640 l 688 146 l 792 121 l 792 10 m 251 225 q 333 142 251 142 q 403 162 367 142 q 461 203 440 182 l 482 222 l 482 315 l 403 315 q 287 294 322 315 q 251 225 251 272 m 490 831 l 154 1035 l 249 1179 l 558 932 l 490 831 z "},"á":{"ha":822,"x_min":51,"x_max":792,"o":"m 792 10 l 517 0 l 492 90 q 458 62 479 79 q 378 15 438 44 q 267 -14 319 -14 q 108 43 165 -14 q 51 204 51 100 q 385 433 51 433 l 482 433 l 482 510 q 375 614 482 614 q 313 608 343 614 q 267 597 282 603 l 253 593 l 232 503 l 107 503 l 97 708 q 399 764 265 764 q 622 702 557 764 q 688 489 688 640 l 688 146 l 792 121 l 792 10 m 251 225 q 333 142 251 142 q 403 162 367 142 q 461 203 440 182 l 482 222 l 482 315 l 403 315 q 287 294 322 315 q 251 225 251 272 m 607 1035 l 271 831 l 203 932 l 513 1179 l 607 1035 z "},"â":{"ha":822,"x_min":51,"x_max":792,"o":"m 792 10 l 517 0 l 492 90 q 458 62 479 79 q 378 15 438 44 q 267 -14 319 -14 q 108 43 165 -14 q 51 204 51 100 q 385 433 51 433 l 482 433 l 482 510 q 375 614 482 614 q 313 608 343 614 q 267 597 282 603 l 253 593 l 232 503 l 107 503 l 97 708 q 399 764 265 764 q 622 702 557 764 q 688 489 688 640 l 688 146 l 792 121 l 792 10 m 251 225 q 333 142 251 142 q 403 162 367 142 q 461 203 440 182 l 482 222 l 482 315 l 403 315 q 287 294 322 315 q 251 225 251 272 m 399 1006 l 165 839 l 99 931 l 326 1143 l 450 1154 l 693 931 l 626 839 l 399 1006 z "},"ã":{"ha":822,"x_min":51,"x_max":792,"o":"m 792 10 l 517 0 l 492 90 q 458 62 479 79 q 378 15 438 44 q 267 -14 319 -14 q 108 43 165 -14 q 51 204 51 100 q 385 433 51 433 l 482 433 l 482 510 q 375 614 482 614 q 313 608 343 614 q 267 597 282 603 l 253 593 l 232 503 l 107 503 l 97 708 q 399 764 265 764 q 622 702 557 764 q 688 489 688 640 l 688 146 l 792 121 l 792 10 m 251 225 q 333 142 251 142 q 403 162 367 142 q 461 203 440 182 l 482 222 l 482 315 l 403 315 q 287 294 322 315 q 251 225 251 272 m 161 875 l 96 939 q 103 955 99 944 q 124 992 107 965 q 158 1038 140 1018 q 207 1075 176 1058 q 269 1092 238 1092 q 390 1060 319 1092 q 500 1028 460 1028 q 548 1042 524 1028 q 583 1072 572 1057 l 596 1086 l 669 1022 q 662 1006 667 1017 q 641 969 657 996 q 606 924 625 943 q 558 888 588 904 q 496 871 528 871 q 374 901 446 871 q 263 932 303 932 q 211 917 236 932 q 174 889 186 903 l 161 875 z "},"ä":{"ha":822,"x_min":51,"x_max":792,"o":"m 792 10 l 517 0 l 492 90 q 458 62 479 79 q 378 15 438 44 q 267 -14 319 -14 q 108 43 165 -14 q 51 204 51 100 q 385 433 51 433 l 482 433 l 482 510 q 375 614 482 614 q 313 608 343 614 q 267 597 282 603 l 253 593 l 232 503 l 107 503 l 97 708 q 399 764 265 764 q 622 702 557 764 q 688 489 688 640 l 688 146 l 792 121 l 792 10 m 251 225 q 333 142 251 142 q 403 162 367 142 q 461 203 440 182 l 482 222 l 482 315 l 403 315 q 287 294 322 315 q 251 225 251 272 m 144 969 q 174 1048 144 1018 q 247 1078 204 1078 q 322 1049 296 1078 q 347 969 347 1021 q 317 890 347 919 q 244 861 288 861 q 144 969 144 861 m 447 969 q 478 1048 447 1018 q 550 1078 508 1078 q 650 969 650 1078 q 620 890 650 919 q 547 861 590 861 q 447 969 447 861 z "},"å":{"ha":822,"x_min":51,"x_max":792,"o":"m 792 10 l 517 0 l 492 90 q 458 62 479 79 q 378 15 438 44 q 267 -14 319 -14 q 108 43 165 -14 q 51 204 51 100 q 385 433 51 433 l 482 433 l 482 510 q 375 614 482 614 q 313 608 343 614 q 267 597 282 603 l 253 593 l 232 503 l 107 503 l 97 708 q 399 764 265 764 q 622 702 557 764 q 688 489 688 640 l 688 146 l 792 121 l 792 10 m 251 225 q 333 142 251 142 q 403 162 367 142 q 461 203 440 182 l 482 222 l 482 315 l 403 315 q 287 294 322 315 q 251 225 251 272 m 225 978 q 281 1112 225 1061 q 411 1163 338 1163 q 540 1115 485 1163 q 596 986 596 1068 q 540 853 596 904 q 411 801 483 801 q 281 849 336 801 q 225 978 225 896 m 343 982 q 411 903 343 903 q 459 924 440 903 q 478 983 478 944 q 411 1063 478 1063 q 362 1042 381 1063 q 343 982 343 1021 z "},"æ":{"ha":1199,"x_min":51,"x_max":1157,"o":"m 1149 331 l 689 326 q 740 195 694 242 q 857 149 785 149 q 966 165 908 149 q 1056 197 1024 181 l 1088 214 l 1149 103 q 1103 71 1132 90 q 990 19 1074 51 q 829 -14 906 -14 q 540 125 626 -14 q 267 -14 422 -14 q 110 44 168 -14 q 51 204 51 103 q 385 433 51 433 l 482 433 l 482 510 q 375 614 482 614 q 314 608 344 614 q 268 597 283 603 l 253 593 l 232 503 l 107 503 l 97 708 q 143 724 97 711 q 263 749 189 736 q 396 763 338 763 q 613 682 551 763 q 843 764 706 764 q 1075 678 993 764 q 1157 439 1157 592 l 1149 331 m 250 225 q 272 164 250 186 q 333 142 294 142 q 403 163 365 142 q 461 204 440 183 l 482 225 l 482 315 l 403 315 q 286 294 322 315 q 250 225 250 272 m 829 601 q 734 562 771 601 q 689 451 697 522 l 943 451 q 829 601 943 601 z "},"ç":{"ha":715,"x_min":42,"x_max":701,"o":"m 632 222 l 701 104 q 464 -8 592 10 l 464 -56 q 551 -99 518 -67 q 583 -181 583 -132 q 533 -279 583 -240 q 410 -318 483 -318 q 325 -307 368 -318 q 260 -285 282 -296 l 238 -274 l 281 -197 q 394 -226 339 -226 q 442 -212 425 -226 q 460 -175 460 -199 q 428 -130 460 -146 q 344 -114 397 -114 l 344 -10 q 121 103 200 6 q 42 364 42 201 q 142 657 42 550 q 424 764 243 764 q 538 752 476 764 q 633 728 599 740 l 667 715 l 660 489 l 535 489 l 515 589 q 419 600 475 600 q 299 548 342 600 q 257 392 257 496 q 301 211 257 274 q 431 149 344 149 q 483 153 458 149 q 532 168 508 158 q 569 185 556 178 q 605 206 582 192 q 632 222 628 219 z "},"è":{"ha":774,"x_min":49,"x_max":736,"o":"m 728 333 l 267 329 q 317 196 272 243 q 433 149 363 149 q 543 165 485 149 q 633 197 601 181 l 667 214 l 726 103 q 683 71 711 90 q 572 19 656 51 q 410 -14 489 -14 q 141 84 233 -14 q 49 361 49 182 q 147 655 49 546 q 419 764 246 764 q 654 676 572 764 q 736 438 736 589 l 728 333 m 406 601 q 313 563 349 601 q 269 458 278 524 l 519 458 q 406 601 519 601 m 511 831 l 175 1035 l 269 1179 l 579 932 l 511 831 z "},"é":{"ha":774,"x_min":49,"x_max":736,"o":"m 728 333 l 267 329 q 317 196 272 243 q 433 149 363 149 q 543 165 485 149 q 633 197 601 181 l 667 214 l 726 103 q 683 71 711 90 q 572 19 656 51 q 410 -14 489 -14 q 141 84 233 -14 q 49 361 49 182 q 147 655 49 546 q 419 764 246 764 q 654 676 572 764 q 736 438 736 589 l 728 333 m 406 601 q 313 563 349 601 q 269 458 278 524 l 519 458 q 406 601 519 601 m 638 1035 l 301 831 l 233 932 l 543 1179 l 638 1035 z "},"ê":{"ha":774,"x_min":49,"x_max":736,"o":"m 728 333 l 267 329 q 317 196 272 243 q 433 149 363 149 q 543 165 485 149 q 633 197 601 181 l 667 214 l 726 103 q 683 71 711 90 q 572 19 656 51 q 410 -14 489 -14 q 141 84 233 -14 q 49 361 49 182 q 147 655 49 546 q 419 764 246 764 q 654 676 572 764 q 736 438 736 589 l 728 333 m 406 601 q 313 563 349 601 q 269 458 278 524 l 519 458 q 406 601 519 601 m 403 1006 l 169 839 l 103 931 l 331 1143 l 454 1154 l 697 931 l 631 839 l 403 1006 z "},"ë":{"ha":774,"x_min":49,"x_max":736,"o":"m 728 333 l 267 329 q 317 196 272 243 q 433 149 363 149 q 543 165 485 149 q 633 197 601 181 l 667 214 l 726 103 q 683 71 711 90 q 572 19 656 51 q 410 -14 489 -14 q 141 84 233 -14 q 49 361 49 182 q 147 655 49 546 q 419 764 246 764 q 654 676 572 764 q 736 438 736 589 l 728 333 m 406 601 q 313 563 349 601 q 269 458 278 524 l 519 458 q 406 601 519 601 m 144 969 q 174 1048 144 1018 q 247 1078 204 1078 q 322 1049 296 1078 q 347 969 347 1021 q 317 890 347 919 q 244 861 288 861 q 144 969 144 861 m 447 969 q 478 1048 447 1018 q 550 1078 508 1078 q 650 969 650 1078 q 620 890 650 919 q 547 861 590 861 q 447 969 447 861 z "},"ì":{"ha":513,"x_min":35,"x_max":476,"o":"m 64 739 l 379 750 l 379 146 l 476 111 l 476 0 l 64 0 l 64 111 l 175 146 l 175 600 l 64 628 l 64 739 m 371 831 l 35 1035 l 129 1179 l 439 932 l 371 831 z "},"í":{"ha":497,"x_min":49,"x_max":479,"o":"m 49 739 l 364 750 l 364 146 l 461 111 l 461 0 l 49 0 l 49 111 l 160 146 l 160 600 l 49 628 l 49 739 m 479 1035 l 143 831 l 75 932 l 385 1179 l 479 1035 z "},"î":{"ha":497,"x_min":-39,"x_max":532,"o":"m 250 1006 l 29 839 l -39 931 l 178 1143 l 301 1154 l 532 931 l 464 839 l 250 1006 m 49 739 l 364 750 l 364 146 l 461 111 l 461 0 l 49 0 l 49 111 l 160 146 l 160 600 l 49 628 l 49 739 z "},"ï":{"ha":497,"x_min":-1,"x_max":490,"o":"m -1 969 q 28 1048 -1 1018 q 101 1078 58 1078 q 176 1049 150 1078 q 201 969 201 1021 q 172 890 201 919 q 99 861 142 861 q -1 969 -1 861 m 288 969 q 318 1048 288 1018 q 390 1078 349 1078 q 490 969 490 1078 q 460 890 490 919 q 388 861 431 861 q 288 969 288 861 m 49 739 l 364 750 l 364 146 l 461 111 l 461 0 l 49 0 l 49 111 l 160 146 l 160 600 l 49 628 l 49 739 z "},"ð":{"ha":826,"x_min":44,"x_max":743,"o":"m 160 975 l 224 1096 q 428 1011 332 1069 l 574 1096 l 654 986 l 542 922 q 743 378 743 724 q 646 91 743 199 q 385 -17 549 -17 q 135 72 225 -17 q 44 333 44 161 q 142 603 44 504 q 399 701 240 701 q 507 671 453 701 q 399 838 469 771 l 236 744 l 156 854 l 278 924 q 160 975 221 954 m 399 542 q 260 340 260 542 q 392 142 260 142 q 497 194 465 142 q 528 347 528 246 q 499 493 528 444 q 399 542 471 542 z "},"ñ":{"ha":940,"x_min":42,"x_max":913,"o":"m 42 739 l 340 750 l 349 654 q 456 726 388 690 q 604 761 525 761 q 758 695 704 761 q 813 514 813 629 l 813 149 l 913 111 l 913 0 l 535 0 l 535 111 l 607 149 l 607 482 q 583 563 607 532 q 514 593 558 593 q 438 573 475 593 q 382 533 400 553 l 364 514 l 364 149 l 438 111 l 438 0 l 42 0 l 42 111 l 160 149 l 160 600 l 42 628 l 42 739 m 250 876 l 185 940 q 192 956 188 946 q 212 993 196 967 q 247 1039 228 1019 q 295 1075 265 1058 q 358 1092 325 1092 q 477 1060 408 1092 q 586 1029 546 1029 q 634 1044 610 1029 q 672 1072 658 1058 l 685 1088 l 758 1024 q 751 1008 756 1018 q 730 971 746 997 q 695 924 714 944 q 646 888 676 904 q 583 871 615 871 q 463 902 533 871 q 351 933 392 933 q 299 919 325 933 q 261 892 274 906 l 250 876 z "},"ò":{"ha":822,"x_min":49,"x_max":774,"o":"m 424 764 q 683 666 592 764 q 774 389 774 568 q 673 94 774 203 q 403 -14 572 -14 q 49 368 49 -14 q 150 659 49 554 q 424 764 251 764 m 417 604 q 301 553 338 604 q 264 375 264 501 q 299 201 264 256 q 410 146 333 146 q 522 200 486 146 q 558 382 558 254 q 524 549 558 494 q 417 604 490 604 m 532 831 l 196 1035 l 290 1179 l 600 932 l 532 831 z "},"ó":{"ha":822,"x_min":49,"x_max":774,"o":"m 424 764 q 683 666 592 764 q 774 389 774 568 q 673 94 774 203 q 403 -14 572 -14 q 49 368 49 -14 q 150 659 49 554 q 424 764 251 764 m 417 604 q 301 553 338 604 q 264 375 264 501 q 299 201 264 256 q 410 146 333 146 q 522 200 486 146 q 558 382 558 254 q 524 549 558 494 q 417 604 490 604 m 631 1035 l 294 831 l 226 932 l 536 1179 l 631 1035 z "},"ô":{"ha":822,"x_min":49,"x_max":774,"o":"m 424 764 q 683 666 592 764 q 774 389 774 568 q 673 94 774 203 q 403 -14 572 -14 q 49 368 49 -14 q 150 659 49 554 q 424 764 251 764 m 417 604 q 301 553 338 604 q 264 375 264 501 q 299 201 264 256 q 410 146 333 146 q 522 200 486 146 q 558 382 558 254 q 524 549 558 494 q 417 604 490 604 m 418 1006 l 185 839 l 118 931 l 346 1143 l 469 1154 l 713 931 l 646 839 l 418 1006 z "},"õ":{"ha":822,"x_min":49,"x_max":774,"o":"m 424 764 q 683 666 592 764 q 774 389 774 568 q 673 94 774 203 q 403 -14 572 -14 q 49 368 49 -14 q 150 659 49 554 q 424 764 251 764 m 417 604 q 301 553 338 604 q 264 375 264 501 q 299 201 264 256 q 410 146 333 146 q 522 200 486 146 q 558 382 558 254 q 524 549 558 494 q 417 604 490 604 m 189 875 l 124 939 q 131 955 126 944 q 151 992 135 965 q 186 1038 168 1018 q 235 1075 204 1058 q 297 1092 265 1092 q 417 1060 347 1092 q 528 1028 488 1028 q 576 1042 551 1028 q 613 1072 600 1057 l 624 1086 l 697 1022 q 690 1006 694 1017 q 669 969 685 996 q 634 924 653 943 q 585 888 615 904 q 524 871 556 871 q 402 901 474 871 q 290 932 331 932 q 239 917 264 932 q 201 889 214 903 l 189 875 z "},"ö":{"ha":822,"x_min":49,"x_max":774,"o":"m 424 764 q 683 666 592 764 q 774 389 774 568 q 673 94 774 203 q 403 -14 572 -14 q 49 368 49 -14 q 150 659 49 554 q 424 764 251 764 m 417 604 q 301 553 338 604 q 264 375 264 501 q 299 201 264 256 q 410 146 333 146 q 522 200 486 146 q 558 382 558 254 q 524 549 558 494 q 417 604 490 604 m 158 969 q 188 1048 158 1018 q 261 1078 218 1078 q 335 1049 310 1078 q 361 969 361 1021 q 331 890 361 919 q 258 861 301 861 q 158 969 158 861 m 461 969 q 492 1048 461 1018 q 564 1078 522 1078 q 664 969 664 1078 q 634 890 664 919 q 561 861 604 861 q 461 969 461 861 z "},"÷":{"ha":875,"x_min":72,"x_max":801,"o":"m 317 71 q 351 165 317 132 q 440 199 386 199 q 558 71 558 199 q 524 -24 558 10 q 436 -58 490 -58 q 317 71 317 -58 m 317 668 q 351 763 317 729 q 440 796 386 796 q 558 668 558 796 q 524 573 558 607 q 436 539 490 539 q 317 668 317 539 m 72 289 l 72 449 l 801 449 l 801 289 l 72 289 z "},"ø":{"ha":836,"x_min":56,"x_max":781,"o":"m 165 -162 l 61 -104 l 161 64 q 56 368 56 157 q 157 659 56 554 q 431 764 258 764 q 568 742 501 764 l 658 893 l 763 835 l 672 683 q 781 389 781 586 q 680 94 781 203 q 410 -14 579 -14 q 267 6 339 -14 l 165 -162 m 565 382 q 550 479 565 443 l 357 157 q 417 146 379 146 q 530 201 494 146 q 565 382 565 257 m 424 604 q 307 551 343 604 q 271 374 271 499 q 286 272 271 315 l 478 593 q 424 604 453 604 z "},"ù":{"ha":910,"x_min":22,"x_max":881,"o":"m 124 235 l 124 603 l 22 628 l 22 739 l 329 750 l 329 274 q 347 190 329 217 q 407 163 365 163 q 487 181 446 163 q 550 219 528 200 l 571 239 l 571 603 l 468 628 l 468 739 l 775 750 l 775 146 l 881 118 l 881 10 l 597 0 l 583 97 q 570 85 579 93 q 535 58 561 78 q 481 24 508 39 q 413 -2 453 10 q 338 -14 374 -14 q 178 51 233 -14 q 124 235 124 117 m 547 831 l 211 1035 l 306 1179 l 615 932 l 547 831 z "},"ú":{"ha":910,"x_min":22,"x_max":881,"o":"m 124 235 l 124 603 l 22 628 l 22 739 l 329 750 l 329 274 q 347 190 329 217 q 407 163 365 163 q 487 181 446 163 q 550 219 528 200 l 571 239 l 571 603 l 468 628 l 468 739 l 775 750 l 775 146 l 881 118 l 881 10 l 597 0 l 583 97 q 570 85 579 93 q 535 58 561 78 q 481 24 508 39 q 413 -2 453 10 q 338 -14 374 -14 q 178 51 233 -14 q 124 235 124 117 m 661 1035 l 325 831 l 257 932 l 567 1179 l 661 1035 z "},"û":{"ha":910,"x_min":22,"x_max":881,"o":"m 124 235 l 124 603 l 22 628 l 22 739 l 329 750 l 329 274 q 347 190 329 217 q 407 163 365 163 q 487 181 446 163 q 550 219 528 200 l 571 239 l 571 603 l 468 628 l 468 739 l 775 750 l 775 146 l 881 118 l 881 10 l 597 0 l 583 97 q 570 85 579 93 q 535 58 561 78 q 481 24 508 39 q 413 -2 453 10 q 338 -14 374 -14 q 178 51 233 -14 q 124 235 124 117 m 444 1006 l 211 839 l 144 931 l 372 1143 l 496 1154 l 739 931 l 672 839 l 444 1006 z "},"ü":{"ha":910,"x_min":22,"x_max":881,"o":"m 124 235 l 124 603 l 22 628 l 22 739 l 329 750 l 329 274 q 347 190 329 217 q 407 163 365 163 q 487 181 446 163 q 550 219 528 200 l 571 239 l 571 603 l 468 628 l 468 739 l 775 750 l 775 146 l 881 118 l 881 10 l 597 0 l 583 97 q 570 85 579 93 q 535 58 561 78 q 481 24 508 39 q 413 -2 453 10 q 338 -14 374 -14 q 178 51 233 -14 q 124 235 124 117 m 183 969 q 213 1048 183 1018 q 286 1078 243 1078 q 360 1049 335 1078 q 386 969 386 1021 q 356 890 386 919 q 283 861 326 861 q 183 969 183 861 m 486 969 q 517 1048 486 1018 q 589 1078 547 1078 q 689 969 689 1078 q 659 890 689 919 q 586 861 629 861 q 486 969 486 861 z "},"ý":{"ha":849,"x_min":14,"x_max":842,"o":"m 335 -1 l 88 610 l 14 632 l 14 743 l 385 750 l 385 632 l 307 618 l 431 229 l 549 614 l 468 632 l 468 743 l 842 750 l 842 632 l 756 614 l 551 44 q 494 -94 521 -37 q 422 -210 467 -150 q 315 -302 378 -271 q 174 -333 253 -333 l 39 -322 l 58 -174 l 149 -174 q 220 -156 188 -174 q 276 -106 253 -139 q 310 -53 299 -74 q 335 -1 321 -32 m 724 1035 l 388 831 l 319 932 l 629 1179 l 724 1035 z "},"þ":{"ha":854,"x_min":35,"x_max":833,"o":"m 35 1065 l 354 1076 l 354 683 q 378 706 363 692 q 446 742 394 719 q 551 764 497 764 q 760 665 688 764 q 833 396 833 567 q 734 93 833 200 q 438 -14 635 -14 q 400 -11 421 -14 q 367 -6 379 -8 l 354 -3 l 354 -183 l 500 -215 l 500 -326 l 38 -326 l 38 -215 l 146 -183 l 146 926 l 35 954 l 35 1065 m 354 535 l 354 164 q 460 146 389 146 q 618 382 618 146 q 482 600 618 600 q 413 583 444 600 q 367 550 381 567 l 354 535 z "},"ÿ":{"ha":849,"x_min":14,"x_max":842,"o":"m 335 -1 l 88 610 l 14 632 l 14 743 l 385 750 l 385 632 l 307 618 l 431 229 l 549 614 l 468 632 l 468 743 l 842 750 l 842 632 l 756 614 l 551 44 q 494 -94 521 -37 q 422 -210 467 -150 q 315 -302 378 -271 q 174 -333 253 -333 l 39 -322 l 58 -174 l 149 -174 q 220 -156 188 -174 q 276 -106 253 -139 q 310 -53 299 -74 q 335 -1 321 -32 m 171 989 q 271 881 171 881 q 344 910 314 881 q 374 989 374 939 q 348 1069 374 1040 q 274 1097 322 1097 q 201 1067 231 1097 q 171 989 171 1038 m 474 989 q 574 881 474 881 q 647 910 617 881 q 676 989 676 939 q 576 1097 676 1097 q 504 1067 535 1097 q 474 989 474 1038 m 158 969 q 188 1048 158 1018 q 261 1078 218 1078 q 335 1049 310 1078 q 361 969 361 1021 q 331 890 361 919 q 258 861 301 861 q 158 969 158 861 m 461 969 q 492 1048 461 1018 q 564 1078 522 1078 q 664 969 664 1078 q 634 890 664 919 q 561 861 604 861 q 461 969 461 861 z "},"ą":{"ha":792,"x_min":51,"x_max":792,"o":"m 792 10 q 774 -1 785 6 q 735 -26 763 -7 q 685 -65 707 -46 q 646 -108 664 -83 q 628 -153 628 -132 q 642 -190 628 -176 q 681 -203 657 -203 l 740 -194 l 764 -292 q 621 -326 697 -326 q 512 -291 556 -326 q 468 -187 468 -256 q 519 -67 468 -118 q 613 3 571 -15 l 517 0 l 492 90 q 458 62 479 79 q 378 15 438 44 q 267 -14 319 -14 q 108 43 165 -14 q 51 204 51 100 q 385 433 51 433 l 482 433 l 482 510 q 375 614 482 614 q 313 608 343 614 q 267 597 282 603 l 253 593 l 232 503 l 107 503 l 97 708 q 399 764 265 764 q 622 702 557 764 q 688 489 688 640 l 688 146 l 792 121 l 792 10 m 251 225 q 333 142 251 142 q 403 162 367 142 q 461 203 440 182 l 482 222 l 482 315 l 403 315 q 287 294 322 315 q 251 225 251 272 z "},"ę":{"ha":736,"x_min":28,"x_max":715,"o":"m 475 -149 q 490 -188 475 -174 q 528 -203 504 -203 l 586 -194 l 610 -292 q 468 -326 544 -326 q 358 -291 401 -326 q 315 -190 315 -256 q 426 -11 315 -100 q 389 -14 401 -14 q 120 84 213 -14 q 28 361 28 182 q 126 655 28 546 q 399 764 225 764 q 633 676 551 764 q 715 438 715 589 l 707 333 l 246 329 q 297 196 251 243 q 413 149 342 149 q 507 160 463 149 q 593 192 551 172 q 646 214 635 211 l 706 103 q 624 41 668 76 q 528 -53 581 6 q 475 -149 475 -112 m 385 601 q 292 563 328 601 q 249 458 257 524 l 499 458 q 385 601 499 601 z "},"Ĩ":{"ha":521,"x_min":-32,"x_max":556,"o":"m 35 1079 l -32 1133 q -25 1149 -29 1139 q -4 1186 -21 1160 q 31 1233 13 1213 q 79 1269 49 1253 q 142 1286 110 1286 q 267 1254 192 1286 q 383 1222 343 1222 q 431 1237 407 1222 q 467 1267 456 1251 l 479 1281 l 556 1222 q 547 1207 553 1217 q 523 1172 542 1197 q 484 1128 504 1147 q 432 1093 464 1108 q 368 1078 400 1078 q 247 1105 318 1078 q 135 1132 175 1132 q 83 1119 108 1132 q 47 1092 58 1106 l 35 1079 m 472 121 l 472 0 l 49 0 l 49 121 l 153 156 l 153 815 l 49 857 l 49 972 l 472 979 l 472 857 l 368 815 l 368 156 l 472 121 z "},"ĩ":{"ha":497,"x_min":-44,"x_max":501,"o":"m 21 875 l -44 939 q -37 955 -42 944 q -17 992 -33 965 q 17 1038 -1 1018 q 65 1075 36 1058 q 125 1092 94 1092 q 238 1060 172 1092 q 336 1028 304 1028 q 381 1042 358 1028 q 417 1072 404 1057 l 428 1086 l 501 1022 q 494 1006 499 1017 q 474 969 490 996 q 439 924 457 943 q 392 888 421 904 q 332 871 363 871 q 222 901 289 871 q 118 932 156 932 q 70 917 94 932 q 33 889 46 903 l 21 875 m 49 739 l 364 750 l 364 146 l 461 111 l 461 0 l 49 0 l 49 111 l 160 146 l 160 600 l 49 628 l 49 739 z "},"ı":{"ha":497,"x_min":49,"x_max":461,"o":"m 49 739 l 364 750 l 364 146 l 461 111 l 461 0 l 49 0 l 49 111 l 160 146 l 160 600 l 49 628 l 49 739 z "},"ŀ":{"ha":913,"x_min":35,"x_max":803,"o":"m 35 1065 l 356 1076 l 356 146 l 488 111 l 488 0 l 35 0 l 35 111 l 146 146 l 146 926 l 35 954 l 35 1065 m 558 486 q 593 582 558 547 q 683 617 628 617 q 803 486 803 617 q 769 391 803 425 q 679 357 735 357 q 558 486 558 357 z "},"Ł":{"ha":813,"x_min":53,"x_max":794,"o":"m 419 815 l 419 608 l 610 693 l 654 544 l 419 440 l 419 163 l 632 163 l 663 319 l 794 319 l 794 0 l 100 0 l 100 121 l 204 156 l 204 353 l 97 306 l 53 454 l 204 521 l 204 815 l 100 857 l 100 972 l 524 979 l 524 857 l 419 815 z "},"ł":{"ha":599,"x_min":35,"x_max":585,"o":"m 93 1065 l 414 1076 l 414 650 l 553 711 l 585 557 l 414 482 l 414 146 l 546 111 l 546 0 l 93 0 l 93 111 l 204 146 l 204 397 l 78 342 l 35 489 l 204 564 l 204 926 l 93 954 l 93 1065 z "},"Œ":{"ha":1328,"x_min":72,"x_max":1258,"o":"m 853 431 l 853 163 l 1099 163 l 1131 278 l 1258 278 l 1258 0 l 758 0 q 638 -7 726 0 q 503 -14 549 -14 q 183 113 293 -14 q 72 482 72 239 q 196 857 72 721 q 531 993 319 993 q 656 986 572 993 q 776 979 740 979 l 1242 979 l 1242 711 l 1113 711 l 1078 815 l 853 815 l 853 583 l 1133 583 l 1133 431 l 853 431 m 638 163 l 638 815 q 539 821 599 821 q 363 748 419 821 q 306 489 306 675 q 356 237 306 318 q 514 156 407 156 q 587 159 542 156 q 638 163 632 163 z "},"œ":{"ha":1292,"x_min":51,"x_max":1250,"o":"m 424 764 q 682 644 589 764 q 938 764 775 764 q 1169 676 1088 764 q 1250 438 1250 589 l 1242 333 l 781 329 q 831 196 786 243 q 947 149 876 149 q 1042 160 997 149 q 1128 192 1086 172 q 1181 214 1169 211 l 1240 103 q 1197 71 1225 90 q 1088 19 1169 51 q 928 -14 1006 -14 q 667 107 754 -14 q 403 -14 567 -14 q 51 368 51 -14 q 153 658 51 553 q 424 764 254 764 m 419 604 q 304 553 342 604 q 267 375 267 501 q 302 201 267 256 q 413 146 338 146 q 528 201 490 146 q 565 382 565 256 q 419 604 565 604 m 919 601 q 827 563 863 601 q 783 458 792 524 l 1033 458 q 919 601 1033 601 z "},"Š":{"ha":840,"x_min":81,"x_max":768,"o":"m 413 1182 l 606 1329 l 675 1246 l 476 1042 l 351 1042 l 139 1246 l 217 1329 l 413 1182 m 225 301 l 246 185 q 382 156 301 156 q 501 185 453 156 q 550 268 550 215 q 515 333 550 306 q 428 376 481 361 q 315 417 376 392 q 202 473 254 443 q 115 562 150 503 q 81 701 81 621 q 178 919 81 842 q 433 996 276 996 q 579 982 503 996 q 697 954 656 968 l 739 940 l 732 688 l 604 688 l 569 806 q 447 826 507 826 q 338 799 376 826 q 300 728 300 771 q 335 663 300 690 q 422 619 369 635 q 534 578 474 603 q 647 524 594 553 q 733 438 699 494 q 768 304 768 381 q 663 67 768 153 q 393 -18 558 -18 q 246 -5 324 -18 q 125 22 168 8 l 83 35 l 83 301 l 225 301 z "},"š":{"ha":682,"x_min":53,"x_max":632,"o":"m 185 243 l 196 146 q 310 132 242 132 q 419 207 419 132 q 382 262 419 239 q 290 301 344 285 q 182 341 236 318 q 90 411 128 364 q 53 526 53 458 q 135 706 53 649 q 339 764 217 764 q 459 753 394 764 q 561 733 524 743 l 597 722 q 592 514 594 653 l 469 514 l 449 604 q 357 618 413 618 q 289 599 314 618 q 264 547 264 581 q 302 493 264 515 q 394 454 340 471 q 501 416 447 438 q 594 349 556 394 q 632 236 632 303 q 545 52 632 118 q 313 -14 458 -14 q 190 -6 254 -14 q 92 8 126 1 l 57 17 l 57 243 l 185 243 m 333 1006 l 526 1153 l 596 1069 l 397 865 l 274 865 l 61 1069 l 138 1153 l 333 1006 z "},"Ÿ":{"ha":926,"x_min":10,"x_max":917,"o":"m 674 121 l 674 0 l 250 0 l 250 121 l 354 156 l 354 339 l 100 819 l 10 857 l 10 972 l 403 979 l 403 857 l 332 828 l 471 526 l 618 826 l 542 857 l 542 972 l 917 979 l 917 857 l 821 819 l 569 340 l 569 156 l 674 121 m 206 1178 q 235 1256 206 1226 q 308 1286 265 1286 q 383 1258 357 1286 q 408 1178 408 1229 q 378 1099 408 1128 q 306 1069 349 1069 q 206 1178 206 1069 m 508 1178 q 539 1256 508 1226 q 611 1286 569 1286 q 711 1178 711 1286 q 681 1099 711 1128 q 608 1069 651 1069 q 508 1178 508 1069 z "},"Ž":{"ha":854,"x_min":42,"x_max":813,"o":"m 429 1182 l 622 1329 l 692 1246 l 493 1042 l 368 1042 l 156 1246 l 233 1329 l 429 1182 m 808 0 l 42 0 l 42 142 l 535 815 l 243 815 l 208 690 l 76 690 l 76 979 l 813 979 l 813 822 l 329 163 l 646 163 l 676 306 l 808 306 l 808 0 z "},"ž":{"ha":718,"x_min":69,"x_max":674,"o":"m 86 750 l 669 750 l 669 621 l 313 146 l 525 146 l 551 271 l 674 271 l 674 0 l 69 0 l 69 128 l 432 604 l 232 604 l 208 496 l 86 496 l 86 750 m 349 1006 l 542 1153 l 611 1069 l 413 865 l 289 865 l 76 1069 l 153 1153 l 349 1006 z "},"ƒ":{"ha":611,"x_min":-93,"x_max":611,"o":"m 164 646 l 175 765 q 262 1003 189 922 q 481 1083 335 1083 l 611 1075 l 597 931 l 507 931 q 417 900 442 931 q 385 797 392 869 l 371 646 l 553 646 l 549 507 l 360 507 l 315 40 q 228 -197 300 -117 q 10 -278 156 -278 l -93 -269 l -75 -125 l -17 -125 q 74 -94 49 -125 q 106 8 99 -64 l 151 507 l 38 507 l 39 625 l 164 646 z "},"ˆ":{"ha":756,"x_min":97,"x_max":658,"o":"m 382 1018 l 164 882 l 97 974 l 310 1156 l 433 1167 l 658 974 l 592 882 l 382 1018 z "},"ˇ":{"ha":715,"x_min":90,"x_max":625,"o":"m 363 1006 l 556 1153 l 625 1069 l 426 865 l 303 865 l 90 1069 l 167 1153 l 363 1006 z "},"˘":{"ha":611,"x_min":78,"x_max":532,"o":"m 78 1063 l 199 1075 q 201 1064 199 1071 q 210 1039 203 1057 q 228 1008 218 1021 q 260 983 239 994 q 306 972 281 972 q 375 994 349 972 q 406 1039 401 1017 l 411 1063 l 532 1072 q 463 892 532 957 q 292 828 394 828 q 139 891 200 828 q 78 1063 78 954 z "},"˙":{"ha":413,"x_min":104,"x_max":308,"o":"m 131 892 q 118 906 131 892 q 104 972 104 921 q 133 1053 104 1024 q 206 1083 163 1083 q 281 1054 253 1083 q 308 972 308 1025 q 278 892 308 922 q 206 863 249 863 q 131 892 158 863 z "},"˚":{"ha":571,"x_min":100,"x_max":471,"o":"m 100 978 q 156 1112 100 1061 q 286 1163 213 1163 q 415 1115 360 1163 q 471 986 471 1068 q 415 853 471 904 q 286 801 358 801 q 156 849 211 801 q 100 978 100 896 m 218 982 q 286 903 218 903 q 334 924 315 903 q 353 983 353 944 q 286 1063 353 1063 q 237 1042 256 1063 q 218 982 218 1021 z "},"˛":{"ha":431,"x_min":76,"x_max":396,"o":"m 236 -153 q 288 -203 236 -203 l 347 -194 l 371 -292 q 229 -326 306 -326 q 119 -291 163 -326 q 76 -187 76 -256 q 92 -119 76 -153 q 131 -65 108 -86 q 175 -26 153 -43 q 214 0 197 -8 l 229 7 l 396 7 q 378 -3 389 3 q 340 -28 368 -10 q 292 -65 313 -47 q 253 -108 271 -83 q 236 -153 236 -132 z "},"˜":{"ha":789,"x_min":111,"x_max":685,"o":"m 176 875 l 111 939 q 118 955 114 944 q 139 992 122 965 q 174 1038 156 1018 q 222 1075 192 1058 q 285 1092 253 1092 q 405 1060 335 1092 q 515 1028 475 1028 q 563 1042 539 1028 q 600 1072 588 1057 l 611 1086 l 685 1022 q 677 1006 682 1017 q 656 969 672 996 q 622 924 640 943 q 573 888 603 904 q 511 871 543 871 q 390 901 461 871 q 278 932 318 932 q 226 917 251 932 q 189 889 201 903 l 176 875 z "},"˝":{"ha":865,"x_min":111,"x_max":782,"o":"m 782 1104 l 511 869 l 424 956 l 669 1219 l 782 1104 m 469 1104 l 199 869 l 111 956 l 357 1219 l 469 1104 z "},"Δ":{"ha":943,"x_min":24,"x_max":918,"o":"m 24 139 l 383 1004 l 568 1004 l 918 139 l 918 0 l 24 0 l 24 139 m 460 778 l 211 156 l 708 156 l 460 778 z "},"π":{"ha":958,"x_min":31,"x_max":982,"o":"m 933 163 l 982 65 q 950 44 971 57 q 871 8 929 31 q 758 -14 813 -14 q 619 47 674 -14 q 565 236 565 108 l 565 593 l 343 593 l 343 0 l 139 0 l 139 597 l 31 628 l 31 736 l 326 750 l 882 750 l 882 628 l 769 600 l 769 228 q 839 140 769 140 q 881 146 857 140 q 919 157 904 151 l 933 163 z "},"–":{"ha":694,"x_min":0,"x_max":694,"o":"m 0 371 l 0 535 l 694 535 l 694 371 l 0 371 z "},"—":{"ha":1347,"x_min":0,"x_max":1347,"o":"m 0 371 l 0 535 l 1347 535 l 1347 371 l 0 371 z "},"‘":{"ha":432,"x_min":86,"x_max":365,"o":"m 322 726 q 288 637 322 671 q 203 603 254 603 q 118 636 150 603 q 86 732 86 669 q 278 1093 86 888 l 365 1022 q 282 854 282 911 q 302 801 282 839 q 322 726 322 764 z "},"’":{"ha":432,"x_min":65,"x_max":344,"o":"m 65 675 q 149 842 149 786 q 128 896 149 858 q 108 969 108 933 q 142 1059 108 1025 q 229 1093 176 1093 q 313 1060 282 1093 q 344 965 344 1026 q 154 603 344 810 l 65 675 z "},"‚":{"ha":432,"x_min":65,"x_max":344,"o":"m 65 -219 q 149 -53 149 -108 q 128 1 149 -36 q 108 75 108 39 q 142 165 108 131 q 229 199 176 199 q 313 165 282 199 q 344 71 344 132 q 154 -292 344 -85 l 65 -219 z "},"“":{"ha":754,"x_min":86,"x_max":689,"o":"m 646 726 q 612 637 646 671 q 525 603 578 603 q 441 636 472 603 q 410 732 410 669 q 600 1093 410 886 l 689 1022 q 606 854 606 911 q 626 801 606 839 q 646 726 646 764 m 322 726 q 288 637 322 671 q 203 603 254 603 q 118 636 150 603 q 86 732 86 669 q 278 1093 86 888 l 365 1022 q 282 854 282 911 q 302 801 282 839 q 322 726 322 764 z "},"”":{"ha":754,"x_min":65,"x_max":668,"o":"m 65 675 q 149 842 149 786 q 128 896 149 858 q 108 969 108 933 q 142 1059 108 1025 q 229 1093 176 1093 q 313 1060 282 1093 q 344 965 344 1026 q 154 603 344 810 l 65 675 m 389 675 q 472 842 472 786 q 452 896 472 858 q 432 969 432 933 q 466 1059 432 1025 q 551 1093 500 1093 q 636 1060 604 1093 q 668 965 668 1026 q 476 603 668 808 l 389 675 z "},"„":{"ha":754,"x_min":65,"x_max":668,"o":"m 65 -219 q 149 -53 149 -108 q 128 1 149 -36 q 108 75 108 39 q 142 165 108 131 q 229 199 176 199 q 313 165 282 199 q 344 71 344 132 q 154 -292 344 -85 l 65 -219 m 389 -219 q 472 -53 472 -108 q 452 1 472 -36 q 432 75 432 39 q 466 165 432 131 q 551 199 500 199 q 636 165 604 199 q 668 71 668 132 q 476 -292 668 -86 l 389 -219 z "},"†":{"ha":715,"x_min":49,"x_max":667,"o":"m 49 715 l 49 847 l 278 847 l 271 1044 l 444 1056 l 435 847 l 667 847 l 667 715 l 357 668 l 49 715 m 271 71 l 249 615 l 357 592 l 467 615 l 444 71 l 357 0 l 271 71 z "},"‡":{"ha":715,"x_min":49,"x_max":667,"o":"m 49 715 l 49 847 l 278 847 l 271 1044 l 444 1056 l 435 847 l 667 847 l 667 715 l 357 668 l 49 715 m 271 71 l 258 397 l 357 375 l 457 397 l 444 71 l 357 0 l 271 71 m 113 501 l 113 639 l 357 599 l 601 639 l 601 501 l 357 443 l 113 501 z "},"•":{"ha":754,"x_min":111,"x_max":636,"o":"m 188 252 q 150 291 188 252 q 111 438 111 329 q 188 623 111 546 q 374 700 265 700 q 559 623 482 700 q 636 438 636 546 q 559 252 636 329 q 374 175 482 175 q 188 252 265 175 z "},"…":{"ha":1083,"x_min":72,"x_max":1010,"o":"m 72 108 q 108 199 72 165 q 193 233 143 233 q 308 108 308 233 q 274 16 308 50 q 189 -18 239 -18 q 102 15 132 -18 q 72 108 72 47 m 424 108 q 459 199 424 165 q 543 233 494 233 q 630 201 600 233 q 660 108 660 168 q 625 16 660 50 q 540 -18 590 -18 q 453 15 483 -18 q 424 108 424 47 m 774 108 q 809 199 774 165 q 894 233 844 233 q 1010 108 1010 233 q 975 16 1010 50 q 890 -18 940 -18 q 803 15 833 -18 q 774 108 774 47 z "},"‰":{"ha":1824,"x_min":76,"x_max":1747,"o":"m 1263 229 q 1333 420 1263 350 q 1513 490 1404 490 q 1683 426 1618 490 q 1747 244 1747 363 q 1676 53 1747 125 q 1496 -19 1606 -19 q 1326 42 1389 -19 q 1263 229 1263 104 m 1422 235 q 1503 101 1422 101 q 1588 239 1588 101 q 1506 371 1588 371 q 1422 235 1422 371 m 249 -11 l 829 989 l 1031 989 l 450 -11 l 249 -11 m 76 735 q 147 926 76 856 q 326 996 218 996 q 497 932 432 996 q 561 750 561 868 q 490 558 561 631 q 310 486 419 486 q 140 548 203 486 q 76 735 76 610 m 236 740 q 317 607 236 607 q 401 744 401 607 q 319 876 401 876 q 236 740 236 876 m 721 229 q 792 420 721 350 q 971 490 863 490 q 1141 426 1076 490 q 1206 244 1206 363 q 1135 53 1206 125 q 954 -19 1064 -19 q 784 42 847 -19 q 721 229 721 104 m 881 235 q 961 101 881 101 q 1046 239 1046 101 q 964 371 1046 371 q 881 235 881 371 z "},"‹":{"ha":471,"x_min":69,"x_max":401,"o":"m 244 368 l 401 146 l 286 68 l 69 314 l 69 421 l 286 667 l 401 590 l 244 368 z "},"›":{"ha":471,"x_min":76,"x_max":408,"o":"m 76 146 l 233 368 l 76 590 l 192 667 l 408 421 l 408 314 l 192 68 l 76 146 z "},"⁄":{"ha":853,"x_min":-21,"x_max":867,"o":"m 118 -103 l -21 -10 l 728 1072 l 867 979 l 118 -103 z "},"€":{"ha":885,"x_min":38,"x_max":843,"o":"m 657 806 q 528 826 604 826 q 452 808 485 826 q 403 763 419 789 q 375 709 386 736 q 361 664 364 682 l 358 644 l 635 644 l 635 519 l 38 519 l 38 644 l 138 644 q 177 773 150 714 q 250 884 204 832 q 369 966 296 936 q 535 996 442 996 q 670 981 600 996 q 778 953 740 967 l 815 938 l 808 708 l 679 708 l 657 806 m 38 307 l 38 432 l 635 432 l 635 307 l 368 307 q 544 161 410 161 q 653 181 597 161 q 738 219 708 200 l 767 240 l 843 118 q 828 103 838 113 q 785 72 818 94 q 715 31 751 49 q 624 -2 679 13 q 514 -17 569 -17 q 346 15 418 -17 q 233 101 274 47 q 173 203 193 154 q 142 307 153 251 l 38 307 z "},"∏":{"ha":1021,"x_min":44,"x_max":975,"o":"m 350 -326 l 153 -326 l 153 826 l 44 857 l 44 965 l 347 979 l 975 979 l 975 857 l 864 826 l 864 -326 l 667 -326 l 667 822 l 350 822 l 350 -326 z "},"∑":{"ha":853,"x_min":38,"x_max":790,"o":"m 44 -326 l 44 -183 l 411 331 l 38 838 l 38 979 l 776 979 l 776 711 l 647 711 l 613 822 l 276 822 l 631 350 l 260 -169 l 632 -169 l 654 -51 l 790 -51 l 790 -326 l 44 -326 z "},"−":{"ha":806,"x_min":69,"x_max":736,"o":"m 69 319 l 69 482 l 736 482 l 736 319 l 69 319 z "},"√":{"ha":968,"x_min":14,"x_max":982,"o":"m 94 592 l 14 614 l 14 729 l 267 736 l 431 206 l 681 1069 l 982 1076 l 982 960 l 832 935 l 531 0 l 304 0 l 94 592 z "},"∫":{"ha":607,"x_min":17,"x_max":576,"o":"m 144 -343 q 90 -337 122 -343 q 38 -325 58 -331 l 17 -319 l 29 -185 q 106 -192 71 -192 q 181 -153 160 -192 q 203 -31 203 -114 q 194 285 203 63 q 186 644 186 507 q 198 794 186 731 q 238 909 210 857 q 318 988 265 961 q 447 1014 371 1014 q 504 1008 472 1014 q 556 994 536 1001 l 576 989 q 561 851 565 897 q 485 861 526 861 q 409 823 431 861 q 388 701 388 785 q 396 385 388 607 q 404 25 404 163 q 349 -251 404 -160 q 144 -343 294 -343 z "},"≈":{"ha":889,"x_min":76,"x_max":813,"o":"m 164 397 l 76 458 q 85 476 79 465 q 113 516 92 488 q 157 566 133 544 q 219 606 181 588 q 300 624 258 624 q 451 576 361 624 q 588 529 540 529 q 656 548 622 529 q 706 586 690 567 l 722 606 l 813 544 q 803 526 810 538 q 776 486 797 515 q 731 435 754 457 q 669 394 707 413 q 593 376 632 376 q 437 424 533 376 q 292 471 340 471 q 226 452 258 471 q 179 415 194 433 l 164 397 m 164 126 l 76 188 q 85 206 79 194 q 113 245 92 217 q 157 295 133 274 q 219 335 181 317 q 300 353 258 353 q 451 306 361 353 q 588 258 540 258 q 656 278 622 258 q 706 317 690 297 l 722 335 l 813 274 q 803 256 810 267 q 776 215 797 244 q 731 164 754 186 q 669 124 707 142 q 593 106 632 106 q 437 153 533 106 q 292 200 340 200 q 226 182 258 200 q 179 144 194 164 l 164 126 z "},"≠":{"ha":889,"x_min":86,"x_max":801,"o":"m 86 454 l 86 614 l 456 614 l 529 767 l 713 767 l 639 614 l 801 614 l 801 454 l 563 454 l 497 318 l 801 318 l 801 158 l 422 158 l 346 0 l 163 0 l 239 158 l 86 158 l 86 318 l 314 318 l 379 454 l 86 454 z "},"≤":{"ha":808,"x_min":63,"x_max":746,"o":"m 63 -35 l 63 131 l 746 131 l 746 -35 l 63 -35 m 267 506 l 746 357 l 746 188 l 63 424 l 63 590 l 746 819 l 746 649 l 267 506 z "},"≥":{"ha":808,"x_min":63,"x_max":746,"o":"m 746 131 l 746 -35 l 63 -35 l 63 131 l 746 131 m 63 357 l 542 506 l 63 649 l 63 819 l 746 590 l 746 424 l 63 188 l 63 357 z "},"◊":{"ha":778,"x_min":22,"x_max":750,"o":"m 299 -62 l 22 508 l 294 1076 l 475 1076 l 750 507 l 479 -62 l 299 -62 m 382 876 l 219 519 l 393 139 l 554 496 l 382 876 z "},"ﬁ":{"ha":1051,"x_min":72,"x_max":1017,"o":"m 197 736 l 197 794 q 281 1017 197 942 q 558 1093 365 1093 q 724 1080 640 1093 q 850 1054 807 1067 l 892 1042 l 889 846 l 739 846 l 721 933 q 572 944 640 944 q 441 913 479 944 q 403 819 403 881 l 403 736 l 919 750 l 919 146 l 1017 111 l 1017 0 l 618 0 l 618 111 l 715 146 l 715 600 l 403 600 l 403 146 l 504 111 l 504 0 l 86 0 l 86 111 l 197 146 l 197 600 l 72 600 l 72 715 l 197 736 z "},"ﬂ":{"ha":1094,"x_min":72,"x_max":1035,"o":"m 197 736 l 197 801 q 549 1093 197 1093 q 726 1084 633 1093 q 869 1067 819 1075 l 921 1058 l 921 146 l 1035 111 l 1035 0 l 618 0 l 618 111 l 713 146 l 713 932 q 565 944 633 944 q 403 826 403 944 l 403 736 l 583 736 l 579 597 l 403 597 l 403 146 l 504 111 l 504 0 l 86 0 l 86 111 l 197 146 l 197 597 l 72 597 l 72 715 l 197 736 z "}," ":{"ha":326,"x_min":0,"x_max":0,"o":""}}}
